<?xml version="1.0" encoding="utf-8" standalone="no"?>
<!DOCTYPE svg PUBLIC "-//W3C//DTD SVG 1.1//EN"
  "http://www.w3.org/Graphics/SVG/1.1/DTD/svg11.dtd">
<svg xmlns:xlink="http://www.w3.org/1999/xlink" width="720pt" height="432pt" viewBox="0 0 720 432" xmlns="http://www.w3.org/2000/svg" version="1.1">
 <metadata>
  <rdf:RDF xmlns:dc="http://purl.org/dc/elements/1.1/" xmlns:cc="http://creativecommons.org/ns#" xmlns:rdf="http://www.w3.org/1999/02/22-rdf-syntax-ns#">
   <cc:Work>
    <dc:type rdf:resource="http://purl.org/dc/dcmitype/StillImage"/>
    <dc:date>2025-12-19T13:12:32.975545</dc:date>
    <dc:format>image/svg+xml</dc:format>
    <dc:creator>
     <cc:Agent>
      <dc:title>Matplotlib v3.10.8, https://matplotlib.org/</dc:title>
     </cc:Agent>
    </dc:creator>
   </cc:Work>
  </rdf:RDF>
 </metadata>
 <defs>
  <style type="text/css">*{stroke-linejoin: round; stroke-linecap: butt}</style>
 </defs>
 <g id="figure_1">
  <g id="patch_1">
   <path d="M 0 432 
L 720 432 
L 720 0 
L 0 0 
z
" style="fill: #ffffff"/>
  </g>
  <g id="axes_1">
   <g id="patch_2">
    <path d="M 57.89 371.17375 
L 709.2 371.17375 
L 709.2 66.8 
L 57.89 66.8 
z
" style="fill: #ffffff"/>
   </g>
   <g id="patch_3">
    <path d="M 87.495 371.17375 
L 99.337 371.17375 
L 99.337 81.293988 
L 87.495 81.293988 
z
" clip-path="url(#paca5a0e526)" style="fill: #ff7f0e; opacity: 0.7; stroke: #000000; stroke-linejoin: miter"/>
   </g>
   <g id="patch_4">
    <path d="M 99.337 371.17375 
L 111.179 371.17375 
L 111.179 260.334626 
L 99.337 260.334626 
z
" clip-path="url(#paca5a0e526)" style="fill: #ff7f0e; opacity: 0.7; stroke: #000000; stroke-linejoin: miter"/>
   </g>
   <g id="patch_5">
    <path d="M 111.179 371.17375 
L 123.021 371.17375 
L 123.021 333.107788 
L 111.179 333.107788 
z
" clip-path="url(#paca5a0e526)" style="fill: #ff7f0e; opacity: 0.7; stroke: #000000; stroke-linejoin: miter"/>
   </g>
   <g id="patch_6">
    <path d="M 123.021 371.17375 
L 134.863 371.17375 
L 134.863 319.019651 
L 123.021 319.019651 
z
" clip-path="url(#paca5a0e526)" style="fill: #ff7f0e; opacity: 0.7; stroke: #000000; stroke-linejoin: miter"/>
   </g>
   <g id="patch_7">
    <path d="M 134.863 371.17375 
L 146.705 371.17375 
L 146.705 349.155204 
L 134.863 349.155204 
z
" clip-path="url(#paca5a0e526)" style="fill: #ff7f0e; opacity: 0.7; stroke: #000000; stroke-linejoin: miter"/>
   </g>
   <g id="patch_8">
    <path d="M 146.705 371.17375 
L 158.547 371.17375 
L 158.547 332.0815 
L 146.705 332.0815 
z
" clip-path="url(#paca5a0e526)" style="fill: #ff7f0e; opacity: 0.7; stroke: #000000; stroke-linejoin: miter"/>
   </g>
   <g id="patch_9">
    <path d="M 158.547 371.17375 
L 170.389 371.17375 
L 170.389 340.478403 
L 158.547 340.478403 
z
" clip-path="url(#paca5a0e526)" style="fill: #ff7f0e; opacity: 0.7; stroke: #000000; stroke-linejoin: miter"/>
   </g>
   <g id="patch_10">
    <path d="M 170.389 371.17375 
L 182.231 371.17375 
L 182.231 357.458808 
L 170.389 357.458808 
z
" clip-path="url(#paca5a0e526)" style="fill: #ff7f0e; opacity: 0.7; stroke: #000000; stroke-linejoin: miter"/>
   </g>
   <g id="patch_11">
    <path d="M 182.231 371.17375 
L 194.073 371.17375 
L 194.073 344.956752 
L 182.231 344.956752 
z
" clip-path="url(#paca5a0e526)" style="fill: #ff7f0e; opacity: 0.7; stroke: #000000; stroke-linejoin: miter"/>
   </g>
   <g id="patch_12">
    <path d="M 194.073 371.17375 
L 205.915 371.17375 
L 205.915 360.537672 
L 194.073 360.537672 
z
" clip-path="url(#paca5a0e526)" style="fill: #ff7f0e; opacity: 0.7; stroke: #000000; stroke-linejoin: miter"/>
   </g>
   <g id="patch_13">
    <path d="M 205.915 371.17375 
L 217.757 371.17375 
L 217.757 350.088193 
L 205.915 350.088193 
z
" clip-path="url(#paca5a0e526)" style="fill: #ff7f0e; opacity: 0.7; stroke: #000000; stroke-linejoin: miter"/>
   </g>
   <g id="patch_14">
    <path d="M 217.757 371.17375 
L 229.599 371.17375 
L 229.599 362.403651 
L 217.757 362.403651 
z
" clip-path="url(#paca5a0e526)" style="fill: #ff7f0e; opacity: 0.7; stroke: #000000; stroke-linejoin: miter"/>
   </g>
   <g id="patch_15">
    <path d="M 229.599 371.17375 
L 241.441 371.17375 
L 241.441 355.033036 
L 229.599 355.033036 
z
" clip-path="url(#paca5a0e526)" style="fill: #ff7f0e; opacity: 0.7; stroke: #000000; stroke-linejoin: miter"/>
   </g>
   <g id="patch_16">
    <path d="M 241.441 371.17375 
L 253.283 371.17375 
L 253.283 356.712417 
L 241.441 356.712417 
z
" clip-path="url(#paca5a0e526)" style="fill: #ff7f0e; opacity: 0.7; stroke: #000000; stroke-linejoin: miter"/>
   </g>
   <g id="patch_17">
    <path d="M 253.283 371.17375 
L 265.125 371.17375 
L 265.125 363.709836 
L 253.283 363.709836 
z
" clip-path="url(#paca5a0e526)" style="fill: #ff7f0e; opacity: 0.7; stroke: #000000; stroke-linejoin: miter"/>
   </g>
   <g id="patch_18">
    <path d="M 265.125 371.17375 
L 276.967 371.17375 
L 276.967 359.791281 
L 265.125 359.791281 
z
" clip-path="url(#paca5a0e526)" style="fill: #ff7f0e; opacity: 0.7; stroke: #000000; stroke-linejoin: miter"/>
   </g>
   <g id="patch_19">
    <path d="M 276.967 371.17375 
L 288.809 371.17375 
L 288.809 366.135608 
L 276.967 366.135608 
z
" clip-path="url(#paca5a0e526)" style="fill: #ff7f0e; opacity: 0.7; stroke: #000000; stroke-linejoin: miter"/>
   </g>
   <g id="patch_20">
    <path d="M 288.809 371.17375 
L 300.651 371.17375 
L 300.651 360.910868 
L 288.809 360.910868 
z
" clip-path="url(#paca5a0e526)" style="fill: #ff7f0e; opacity: 0.7; stroke: #000000; stroke-linejoin: miter"/>
   </g>
   <g id="patch_21">
    <path d="M 300.651 371.17375 
L 312.493 371.17375 
L 312.493 362.776847 
L 300.651 362.776847 
z
" clip-path="url(#paca5a0e526)" style="fill: #ff7f0e; opacity: 0.7; stroke: #000000; stroke-linejoin: miter"/>
   </g>
   <g id="patch_22">
    <path d="M 312.493 371.17375 
L 324.335 371.17375 
L 324.335 366.322206 
L 312.493 366.322206 
z
" clip-path="url(#paca5a0e526)" style="fill: #ff7f0e; opacity: 0.7; stroke: #000000; stroke-linejoin: miter"/>
   </g>
   <g id="patch_23">
    <path d="M 324.335 371.17375 
L 336.177 371.17375 
L 336.177 362.590249 
L 324.335 362.590249 
z
" clip-path="url(#paca5a0e526)" style="fill: #ff7f0e; opacity: 0.7; stroke: #000000; stroke-linejoin: miter"/>
   </g>
   <g id="patch_24">
    <path d="M 336.177 371.17375 
L 348.019 371.17375 
L 348.019 368.188184 
L 336.177 368.188184 
z
" clip-path="url(#paca5a0e526)" style="fill: #ff7f0e; opacity: 0.7; stroke: #000000; stroke-linejoin: miter"/>
   </g>
   <g id="patch_25">
    <path d="M 348.019 371.17375 
L 359.861 371.17375 
L 359.861 365.295918 
L 348.019 365.295918 
z
" clip-path="url(#paca5a0e526)" style="fill: #ff7f0e; opacity: 0.7; stroke: #000000; stroke-linejoin: miter"/>
   </g>
   <g id="patch_26">
    <path d="M 359.861 371.17375 
L 371.703 371.17375 
L 371.703 367.72169 
L 359.861 367.72169 
z
" clip-path="url(#paca5a0e526)" style="fill: #ff7f0e; opacity: 0.7; stroke: #000000; stroke-linejoin: miter"/>
   </g>
   <g id="patch_27">
    <path d="M 371.703 371.17375 
L 383.545 371.17375 
L 383.545 365.016021 
L 371.703 365.016021 
z
" clip-path="url(#paca5a0e526)" style="fill: #ff7f0e; opacity: 0.7; stroke: #000000; stroke-linejoin: miter"/>
   </g>
   <g id="patch_28">
    <path d="M 383.545 371.17375 
L 395.387 371.17375 
L 395.387 327.416554 
L 383.545 327.416554 
z
" clip-path="url(#paca5a0e526)" style="fill: #ff7f0e; opacity: 0.7; stroke: #000000; stroke-linejoin: miter"/>
   </g>
   <g id="patch_29">
    <path d="M 395.387 371.17375 
L 407.229 371.17375 
L 407.229 350.461389 
L 395.387 350.461389 
z
" clip-path="url(#paca5a0e526)" style="fill: #ff7f0e; opacity: 0.7; stroke: #000000; stroke-linejoin: miter"/>
   </g>
   <g id="patch_30">
    <path d="M 407.229 371.17375 
L 419.071 371.17375 
L 419.071 342.997474 
L 407.229 342.997474 
z
" clip-path="url(#paca5a0e526)" style="fill: #ff7f0e; opacity: 0.7; stroke: #000000; stroke-linejoin: miter"/>
   </g>
   <g id="patch_31">
    <path d="M 419.071 371.17375 
L 430.913 371.17375 
L 430.913 362.49695 
L 419.071 362.49695 
z
" clip-path="url(#paca5a0e526)" style="fill: #ff7f0e; opacity: 0.7; stroke: #000000; stroke-linejoin: miter"/>
   </g>
   <g id="patch_32">
    <path d="M 430.913 371.17375 
L 442.755 371.17375 
L 442.755 356.339221 
L 430.913 356.339221 
z
" clip-path="url(#paca5a0e526)" style="fill: #ff7f0e; opacity: 0.7; stroke: #000000; stroke-linejoin: miter"/>
   </g>
   <g id="patch_33">
    <path d="M 442.755 371.17375 
L 454.597 371.17375 
L 454.597 364.736124 
L 442.755 364.736124 
z
" clip-path="url(#paca5a0e526)" style="fill: #ff7f0e; opacity: 0.7; stroke: #000000; stroke-linejoin: miter"/>
   </g>
   <g id="patch_34">
    <path d="M 454.597 371.17375 
L 466.439 371.17375 
L 466.439 358.018601 
L 454.597 358.018601 
z
" clip-path="url(#paca5a0e526)" style="fill: #ff7f0e; opacity: 0.7; stroke: #000000; stroke-linejoin: miter"/>
   </g>
   <g id="patch_35">
    <path d="M 466.439 371.17375 
L 478.281 371.17375 
L 478.281 357.365509 
L 466.439 357.365509 
z
" clip-path="url(#paca5a0e526)" style="fill: #ff7f0e; opacity: 0.7; stroke: #000000; stroke-linejoin: miter"/>
   </g>
   <g id="patch_36">
    <path d="M 478.281 371.17375 
L 490.123 371.17375 
L 490.123 364.549526 
L 478.281 364.549526 
z
" clip-path="url(#paca5a0e526)" style="fill: #ff7f0e; opacity: 0.7; stroke: #000000; stroke-linejoin: miter"/>
   </g>
   <g id="patch_37">
    <path d="M 490.123 371.17375 
L 501.965 371.17375 
L 501.965 355.219634 
L 490.123 355.219634 
z
" clip-path="url(#paca5a0e526)" style="fill: #ff7f0e; opacity: 0.7; stroke: #000000; stroke-linejoin: miter"/>
   </g>
   <g id="patch_38">
    <path d="M 501.965 371.17375 
L 513.807 371.17375 
L 513.807 364.083032 
L 501.965 364.083032 
z
" clip-path="url(#paca5a0e526)" style="fill: #ff7f0e; opacity: 0.7; stroke: #000000; stroke-linejoin: miter"/>
   </g>
   <g id="patch_39">
    <path d="M 513.807 371.17375 
L 525.649 371.17375 
L 525.649 356.152623 
L 513.807 356.152623 
z
" clip-path="url(#paca5a0e526)" style="fill: #ff7f0e; opacity: 0.7; stroke: #000000; stroke-linejoin: miter"/>
   </g>
   <g id="patch_40">
    <path d="M 525.649 371.17375 
L 537.491 371.17375 
L 537.491 355.49953 
L 525.649 355.49953 
z
" clip-path="url(#paca5a0e526)" style="fill: #ff7f0e; opacity: 0.7; stroke: #000000; stroke-linejoin: miter"/>
   </g>
   <g id="patch_41">
    <path d="M 537.491 371.17375 
L 549.333 371.17375 
L 549.333 365.482516 
L 537.491 365.482516 
z
" clip-path="url(#paca5a0e526)" style="fill: #ff7f0e; opacity: 0.7; stroke: #000000; stroke-linejoin: miter"/>
   </g>
   <g id="patch_42">
    <path d="M 549.333 371.17375 
L 561.175 371.17375 
L 561.175 363.243341 
L 549.333 363.243341 
z
" clip-path="url(#paca5a0e526)" style="fill: #ff7f0e; opacity: 0.7; stroke: #000000; stroke-linejoin: miter"/>
   </g>
   <g id="patch_43">
    <path d="M 561.175 371.17375 
L 573.017 371.17375 
L 573.017 368.281483 
L 561.175 368.281483 
z
" clip-path="url(#paca5a0e526)" style="fill: #ff7f0e; opacity: 0.7; stroke: #000000; stroke-linejoin: miter"/>
   </g>
   <g id="patch_44">
    <path d="M 573.017 371.17375 
L 584.859 371.17375 
L 584.859 368.001587 
L 573.017 368.001587 
z
" clip-path="url(#paca5a0e526)" style="fill: #ff7f0e; opacity: 0.7; stroke: #000000; stroke-linejoin: miter"/>
   </g>
   <g id="patch_45">
    <path d="M 584.859 371.17375 
L 596.701 371.17375 
L 596.701 370.613956 
L 584.859 370.613956 
z
" clip-path="url(#paca5a0e526)" style="fill: #ff7f0e; opacity: 0.7; stroke: #000000; stroke-linejoin: miter"/>
   </g>
   <g id="patch_46">
    <path d="M 596.701 371.17375 
L 608.543 371.17375 
L 608.543 370.893853 
L 596.701 370.893853 
z
" clip-path="url(#paca5a0e526)" style="fill: #ff7f0e; opacity: 0.7; stroke: #000000; stroke-linejoin: miter"/>
   </g>
   <g id="patch_47">
    <path d="M 608.543 371.17375 
L 620.385 371.17375 
L 620.385 371.080451 
L 608.543 371.080451 
z
" clip-path="url(#paca5a0e526)" style="fill: #ff7f0e; opacity: 0.7; stroke: #000000; stroke-linejoin: miter"/>
   </g>
   <g id="patch_48">
    <path d="M 620.385 371.17375 
L 632.227 371.17375 
L 632.227 371.080451 
L 620.385 371.080451 
z
" clip-path="url(#paca5a0e526)" style="fill: #ff7f0e; opacity: 0.7; stroke: #000000; stroke-linejoin: miter"/>
   </g>
   <g id="patch_49">
    <path d="M 632.227 371.17375 
L 644.069 371.17375 
L 644.069 370.987152 
L 632.227 370.987152 
z
" clip-path="url(#paca5a0e526)" style="fill: #ff7f0e; opacity: 0.7; stroke: #000000; stroke-linejoin: miter"/>
   </g>
   <g id="patch_50">
    <path d="M 644.069 371.17375 
L 655.911 371.17375 
L 655.911 371.080451 
L 644.069 371.080451 
z
" clip-path="url(#paca5a0e526)" style="fill: #ff7f0e; opacity: 0.7; stroke: #000000; stroke-linejoin: miter"/>
   </g>
   <g id="patch_51">
    <path d="M 655.911 371.17375 
L 667.753 371.17375 
L 667.753 371.080451 
L 655.911 371.080451 
z
" clip-path="url(#paca5a0e526)" style="fill: #ff7f0e; opacity: 0.7; stroke: #000000; stroke-linejoin: miter"/>
   </g>
   <g id="patch_52">
    <path d="M 667.753 371.17375 
L 679.595 371.17375 
L 679.595 371.080451 
L 667.753 371.080451 
z
" clip-path="url(#paca5a0e526)" style="fill: #ff7f0e; opacity: 0.7; stroke: #000000; stroke-linejoin: miter"/>
   </g>
   <g id="matplotlib.axis_1">
    <g id="xtick_1">
     <g id="line2d_1">
      <defs>
       <path id="mbf3fde0a63" d="M 0 0 
L 0 3.5 
" style="stroke: #000000; stroke-width: 0.8"/>
      </defs>
      <g>
       <use xlink:href="#mbf3fde0a63" x="87.495" y="371.17375" style="stroke: #000000; stroke-width: 0.8"/>
      </g>
     </g>
     <g id="text_1">
      <!-- 0 -->
      <g transform="translate(84.31375 385.772188) scale(0.1 -0.1)">
       <defs>
        <path id="DejaVuSans-30" d="M 2034 4250 
Q 1547 4250 1301 3770 
Q 1056 3291 1056 2328 
Q 1056 1369 1301 889 
Q 1547 409 2034 409 
Q 2525 409 2770 889 
Q 3016 1369 3016 2328 
Q 3016 3291 2770 3770 
Q 2525 4250 2034 4250 
z
M 2034 4750 
Q 2819 4750 3233 4129 
Q 3647 3509 3647 2328 
Q 3647 1150 3233 529 
Q 2819 -91 2034 -91 
Q 1250 -91 836 529 
Q 422 1150 422 2328 
Q 422 3509 836 4129 
Q 1250 4750 2034 4750 
z
" transform="scale(0.015625)"/>
       </defs>
       <use xlink:href="#DejaVuSans-30"/>
      </g>
     </g>
    </g>
    <g id="xtick_2">
     <g id="line2d_2">
      <g>
       <use xlink:href="#mbf3fde0a63" x="162.444367" y="371.17375" style="stroke: #000000; stroke-width: 0.8"/>
      </g>
     </g>
     <g id="text_2">
      <!-- 10 -->
      <g transform="translate(156.081867 385.772188) scale(0.1 -0.1)">
       <defs>
        <path id="DejaVuSans-31" d="M 794 531 
L 1825 531 
L 1825 4091 
L 703 3866 
L 703 4441 
L 1819 4666 
L 2450 4666 
L 2450 531 
L 3481 531 
L 3481 0 
L 794 0 
L 794 531 
z
" transform="scale(0.015625)"/>
       </defs>
       <use xlink:href="#DejaVuSans-31"/>
       <use xlink:href="#DejaVuSans-30" transform="translate(63.623047 0)"/>
      </g>
     </g>
    </g>
    <g id="xtick_3">
     <g id="line2d_3">
      <g>
       <use xlink:href="#mbf3fde0a63" x="237.393734" y="371.17375" style="stroke: #000000; stroke-width: 0.8"/>
      </g>
     </g>
     <g id="text_3">
      <!-- 20 -->
      <g transform="translate(231.031234 385.772188) scale(0.1 -0.1)">
       <defs>
        <path id="DejaVuSans-32" d="M 1228 531 
L 3431 531 
L 3431 0 
L 469 0 
L 469 531 
Q 828 903 1448 1529 
Q 2069 2156 2228 2338 
Q 2531 2678 2651 2914 
Q 2772 3150 2772 3378 
Q 2772 3750 2511 3984 
Q 2250 4219 1831 4219 
Q 1534 4219 1204 4116 
Q 875 4013 500 3803 
L 500 4441 
Q 881 4594 1212 4672 
Q 1544 4750 1819 4750 
Q 2544 4750 2975 4387 
Q 3406 4025 3406 3419 
Q 3406 3131 3298 2873 
Q 3191 2616 2906 2266 
Q 2828 2175 2409 1742 
Q 1991 1309 1228 531 
z
" transform="scale(0.015625)"/>
       </defs>
       <use xlink:href="#DejaVuSans-32"/>
       <use xlink:href="#DejaVuSans-30" transform="translate(63.623047 0)"/>
      </g>
     </g>
    </g>
    <g id="xtick_4">
     <g id="line2d_4">
      <g>
       <use xlink:href="#mbf3fde0a63" x="312.343101" y="371.17375" style="stroke: #000000; stroke-width: 0.8"/>
      </g>
     </g>
     <g id="text_4">
      <!-- 30 -->
      <g transform="translate(305.980601 385.772188) scale(0.1 -0.1)">
       <defs>
        <path id="DejaVuSans-33" d="M 2597 2516 
Q 3050 2419 3304 2112 
Q 3559 1806 3559 1356 
Q 3559 666 3084 287 
Q 2609 -91 1734 -91 
Q 1441 -91 1130 -33 
Q 819 25 488 141 
L 488 750 
Q 750 597 1062 519 
Q 1375 441 1716 441 
Q 2309 441 2620 675 
Q 2931 909 2931 1356 
Q 2931 1769 2642 2001 
Q 2353 2234 1838 2234 
L 1294 2234 
L 1294 2753 
L 1863 2753 
Q 2328 2753 2575 2939 
Q 2822 3125 2822 3475 
Q 2822 3834 2567 4026 
Q 2313 4219 1838 4219 
Q 1578 4219 1281 4162 
Q 984 4106 628 3988 
L 628 4550 
Q 988 4650 1302 4700 
Q 1616 4750 1894 4750 
Q 2613 4750 3031 4423 
Q 3450 4097 3450 3541 
Q 3450 3153 3228 2886 
Q 3006 2619 2597 2516 
z
" transform="scale(0.015625)"/>
       </defs>
       <use xlink:href="#DejaVuSans-33"/>
       <use xlink:href="#DejaVuSans-30" transform="translate(63.623047 0)"/>
      </g>
     </g>
    </g>
    <g id="xtick_5">
     <g id="line2d_5">
      <g>
       <use xlink:href="#mbf3fde0a63" x="387.292468" y="371.17375" style="stroke: #000000; stroke-width: 0.8"/>
      </g>
     </g>
     <g id="text_5">
      <!-- 40 -->
      <g transform="translate(380.929968 385.772188) scale(0.1 -0.1)">
       <defs>
        <path id="DejaVuSans-34" d="M 2419 4116 
L 825 1625 
L 2419 1625 
L 2419 4116 
z
M 2253 4666 
L 3047 4666 
L 3047 1625 
L 3713 1625 
L 3713 1100 
L 3047 1100 
L 3047 0 
L 2419 0 
L 2419 1100 
L 313 1100 
L 313 1709 
L 2253 4666 
z
" transform="scale(0.015625)"/>
       </defs>
       <use xlink:href="#DejaVuSans-34"/>
       <use xlink:href="#DejaVuSans-30" transform="translate(63.623047 0)"/>
      </g>
     </g>
    </g>
    <g id="xtick_6">
     <g id="line2d_6">
      <g>
       <use xlink:href="#mbf3fde0a63" x="462.241835" y="371.17375" style="stroke: #000000; stroke-width: 0.8"/>
      </g>
     </g>
     <g id="text_6">
      <!-- 50 -->
      <g transform="translate(455.879335 385.772188) scale(0.1 -0.1)">
       <defs>
        <path id="DejaVuSans-35" d="M 691 4666 
L 3169 4666 
L 3169 4134 
L 1269 4134 
L 1269 2991 
Q 1406 3038 1543 3061 
Q 1681 3084 1819 3084 
Q 2600 3084 3056 2656 
Q 3513 2228 3513 1497 
Q 3513 744 3044 326 
Q 2575 -91 1722 -91 
Q 1428 -91 1123 -41 
Q 819 9 494 109 
L 494 744 
Q 775 591 1075 516 
Q 1375 441 1709 441 
Q 2250 441 2565 725 
Q 2881 1009 2881 1497 
Q 2881 1984 2565 2268 
Q 2250 2553 1709 2553 
Q 1456 2553 1204 2497 
Q 953 2441 691 2322 
L 691 4666 
z
" transform="scale(0.015625)"/>
       </defs>
       <use xlink:href="#DejaVuSans-35"/>
       <use xlink:href="#DejaVuSans-30" transform="translate(63.623047 0)"/>
      </g>
     </g>
    </g>
    <g id="xtick_7">
     <g id="line2d_7">
      <g>
       <use xlink:href="#mbf3fde0a63" x="537.191203" y="371.17375" style="stroke: #000000; stroke-width: 0.8"/>
      </g>
     </g>
     <g id="text_7">
      <!-- 60 -->
      <g transform="translate(530.828703 385.772188) scale(0.1 -0.1)">
       <defs>
        <path id="DejaVuSans-36" d="M 2113 2584 
Q 1688 2584 1439 2293 
Q 1191 2003 1191 1497 
Q 1191 994 1439 701 
Q 1688 409 2113 409 
Q 2538 409 2786 701 
Q 3034 994 3034 1497 
Q 3034 2003 2786 2293 
Q 2538 2584 2113 2584 
z
M 3366 4563 
L 3366 3988 
Q 3128 4100 2886 4159 
Q 2644 4219 2406 4219 
Q 1781 4219 1451 3797 
Q 1122 3375 1075 2522 
Q 1259 2794 1537 2939 
Q 1816 3084 2150 3084 
Q 2853 3084 3261 2657 
Q 3669 2231 3669 1497 
Q 3669 778 3244 343 
Q 2819 -91 2113 -91 
Q 1303 -91 875 529 
Q 447 1150 447 2328 
Q 447 3434 972 4092 
Q 1497 4750 2381 4750 
Q 2619 4750 2861 4703 
Q 3103 4656 3366 4563 
z
" transform="scale(0.015625)"/>
       </defs>
       <use xlink:href="#DejaVuSans-36"/>
       <use xlink:href="#DejaVuSans-30" transform="translate(63.623047 0)"/>
      </g>
     </g>
    </g>
    <g id="xtick_8">
     <g id="line2d_8">
      <g>
       <use xlink:href="#mbf3fde0a63" x="612.14057" y="371.17375" style="stroke: #000000; stroke-width: 0.8"/>
      </g>
     </g>
     <g id="text_8">
      <!-- 70 -->
      <g transform="translate(605.77807 385.772188) scale(0.1 -0.1)">
       <defs>
        <path id="DejaVuSans-37" d="M 525 4666 
L 3525 4666 
L 3525 4397 
L 1831 0 
L 1172 0 
L 2766 4134 
L 525 4134 
L 525 4666 
z
" transform="scale(0.015625)"/>
       </defs>
       <use xlink:href="#DejaVuSans-37"/>
       <use xlink:href="#DejaVuSans-30" transform="translate(63.623047 0)"/>
      </g>
     </g>
    </g>
    <g id="xtick_9">
     <g id="line2d_9">
      <g>
       <use xlink:href="#mbf3fde0a63" x="687.089937" y="371.17375" style="stroke: #000000; stroke-width: 0.8"/>
      </g>
     </g>
     <g id="text_9">
      <!-- 80 -->
      <g transform="translate(680.727437 385.772188) scale(0.1 -0.1)">
       <defs>
        <path id="DejaVuSans-38" d="M 2034 2216 
Q 1584 2216 1326 1975 
Q 1069 1734 1069 1313 
Q 1069 891 1326 650 
Q 1584 409 2034 409 
Q 2484 409 2743 651 
Q 3003 894 3003 1313 
Q 3003 1734 2745 1975 
Q 2488 2216 2034 2216 
z
M 1403 2484 
Q 997 2584 770 2862 
Q 544 3141 544 3541 
Q 544 4100 942 4425 
Q 1341 4750 2034 4750 
Q 2731 4750 3128 4425 
Q 3525 4100 3525 3541 
Q 3525 3141 3298 2862 
Q 3072 2584 2669 2484 
Q 3125 2378 3379 2068 
Q 3634 1759 3634 1313 
Q 3634 634 3220 271 
Q 2806 -91 2034 -91 
Q 1263 -91 848 271 
Q 434 634 434 1313 
Q 434 1759 690 2068 
Q 947 2378 1403 2484 
z
M 1172 3481 
Q 1172 3119 1398 2916 
Q 1625 2713 2034 2713 
Q 2441 2713 2670 2916 
Q 2900 3119 2900 3481 
Q 2900 3844 2670 4047 
Q 2441 4250 2034 4250 
Q 1625 4250 1398 4047 
Q 1172 3844 1172 3481 
z
" transform="scale(0.015625)"/>
       </defs>
       <use xlink:href="#DejaVuSans-38"/>
       <use xlink:href="#DejaVuSans-30" transform="translate(63.623047 0)"/>
      </g>
     </g>
    </g>
    <g id="text_10">
     <!-- Tweet Count (last_cycle posts_total) -->
     <g transform="translate(284.846641 400.210156) scale(0.11 -0.11)">
      <defs>
       <path id="DejaVuSans-54" d="M -19 4666 
L 3928 4666 
L 3928 4134 
L 2272 4134 
L 2272 0 
L 1638 0 
L 1638 4134 
L -19 4134 
L -19 4666 
z
" transform="scale(0.015625)"/>
       <path id="DejaVuSans-77" d="M 269 3500 
L 844 3500 
L 1563 769 
L 2278 3500 
L 2956 3500 
L 3675 769 
L 4391 3500 
L 4966 3500 
L 4050 0 
L 3372 0 
L 2619 2869 
L 1863 0 
L 1184 0 
L 269 3500 
z
" transform="scale(0.015625)"/>
       <path id="DejaVuSans-65" d="M 3597 1894 
L 3597 1613 
L 953 1613 
Q 991 1019 1311 708 
Q 1631 397 2203 397 
Q 2534 397 2845 478 
Q 3156 559 3463 722 
L 3463 178 
Q 3153 47 2828 -22 
Q 2503 -91 2169 -91 
Q 1331 -91 842 396 
Q 353 884 353 1716 
Q 353 2575 817 3079 
Q 1281 3584 2069 3584 
Q 2775 3584 3186 3129 
Q 3597 2675 3597 1894 
z
M 3022 2063 
Q 3016 2534 2758 2815 
Q 2500 3097 2075 3097 
Q 1594 3097 1305 2825 
Q 1016 2553 972 2059 
L 3022 2063 
z
" transform="scale(0.015625)"/>
       <path id="DejaVuSans-74" d="M 1172 4494 
L 1172 3500 
L 2356 3500 
L 2356 3053 
L 1172 3053 
L 1172 1153 
Q 1172 725 1289 603 
Q 1406 481 1766 481 
L 2356 481 
L 2356 0 
L 1766 0 
Q 1100 0 847 248 
Q 594 497 594 1153 
L 594 3053 
L 172 3053 
L 172 3500 
L 594 3500 
L 594 4494 
L 1172 4494 
z
" transform="scale(0.015625)"/>
       <path id="DejaVuSans-20" transform="scale(0.015625)"/>
       <path id="DejaVuSans-43" d="M 4122 4306 
L 4122 3641 
Q 3803 3938 3442 4084 
Q 3081 4231 2675 4231 
Q 1875 4231 1450 3742 
Q 1025 3253 1025 2328 
Q 1025 1406 1450 917 
Q 1875 428 2675 428 
Q 3081 428 3442 575 
Q 3803 722 4122 1019 
L 4122 359 
Q 3791 134 3420 21 
Q 3050 -91 2638 -91 
Q 1578 -91 968 557 
Q 359 1206 359 2328 
Q 359 3453 968 4101 
Q 1578 4750 2638 4750 
Q 3056 4750 3426 4639 
Q 3797 4528 4122 4306 
z
" transform="scale(0.015625)"/>
       <path id="DejaVuSans-6f" d="M 1959 3097 
Q 1497 3097 1228 2736 
Q 959 2375 959 1747 
Q 959 1119 1226 758 
Q 1494 397 1959 397 
Q 2419 397 2687 759 
Q 2956 1122 2956 1747 
Q 2956 2369 2687 2733 
Q 2419 3097 1959 3097 
z
M 1959 3584 
Q 2709 3584 3137 3096 
Q 3566 2609 3566 1747 
Q 3566 888 3137 398 
Q 2709 -91 1959 -91 
Q 1206 -91 779 398 
Q 353 888 353 1747 
Q 353 2609 779 3096 
Q 1206 3584 1959 3584 
z
" transform="scale(0.015625)"/>
       <path id="DejaVuSans-75" d="M 544 1381 
L 544 3500 
L 1119 3500 
L 1119 1403 
Q 1119 906 1312 657 
Q 1506 409 1894 409 
Q 2359 409 2629 706 
Q 2900 1003 2900 1516 
L 2900 3500 
L 3475 3500 
L 3475 0 
L 2900 0 
L 2900 538 
Q 2691 219 2414 64 
Q 2138 -91 1772 -91 
Q 1169 -91 856 284 
Q 544 659 544 1381 
z
M 1991 3584 
L 1991 3584 
z
" transform="scale(0.015625)"/>
       <path id="DejaVuSans-6e" d="M 3513 2113 
L 3513 0 
L 2938 0 
L 2938 2094 
Q 2938 2591 2744 2837 
Q 2550 3084 2163 3084 
Q 1697 3084 1428 2787 
Q 1159 2491 1159 1978 
L 1159 0 
L 581 0 
L 581 3500 
L 1159 3500 
L 1159 2956 
Q 1366 3272 1645 3428 
Q 1925 3584 2291 3584 
Q 2894 3584 3203 3211 
Q 3513 2838 3513 2113 
z
" transform="scale(0.015625)"/>
       <path id="DejaVuSans-28" d="M 1984 4856 
Q 1566 4138 1362 3434 
Q 1159 2731 1159 2009 
Q 1159 1288 1364 580 
Q 1569 -128 1984 -844 
L 1484 -844 
Q 1016 -109 783 600 
Q 550 1309 550 2009 
Q 550 2706 781 3412 
Q 1013 4119 1484 4856 
L 1984 4856 
z
" transform="scale(0.015625)"/>
       <path id="DejaVuSans-6c" d="M 603 4863 
L 1178 4863 
L 1178 0 
L 603 0 
L 603 4863 
z
" transform="scale(0.015625)"/>
       <path id="DejaVuSans-61" d="M 2194 1759 
Q 1497 1759 1228 1600 
Q 959 1441 959 1056 
Q 959 750 1161 570 
Q 1363 391 1709 391 
Q 2188 391 2477 730 
Q 2766 1069 2766 1631 
L 2766 1759 
L 2194 1759 
z
M 3341 1997 
L 3341 0 
L 2766 0 
L 2766 531 
Q 2569 213 2275 61 
Q 1981 -91 1556 -91 
Q 1019 -91 701 211 
Q 384 513 384 1019 
Q 384 1609 779 1909 
Q 1175 2209 1959 2209 
L 2766 2209 
L 2766 2266 
Q 2766 2663 2505 2880 
Q 2244 3097 1772 3097 
Q 1472 3097 1187 3025 
Q 903 2953 641 2809 
L 641 3341 
Q 956 3463 1253 3523 
Q 1550 3584 1831 3584 
Q 2591 3584 2966 3190 
Q 3341 2797 3341 1997 
z
" transform="scale(0.015625)"/>
       <path id="DejaVuSans-73" d="M 2834 3397 
L 2834 2853 
Q 2591 2978 2328 3040 
Q 2066 3103 1784 3103 
Q 1356 3103 1142 2972 
Q 928 2841 928 2578 
Q 928 2378 1081 2264 
Q 1234 2150 1697 2047 
L 1894 2003 
Q 2506 1872 2764 1633 
Q 3022 1394 3022 966 
Q 3022 478 2636 193 
Q 2250 -91 1575 -91 
Q 1294 -91 989 -36 
Q 684 19 347 128 
L 347 722 
Q 666 556 975 473 
Q 1284 391 1588 391 
Q 1994 391 2212 530 
Q 2431 669 2431 922 
Q 2431 1156 2273 1281 
Q 2116 1406 1581 1522 
L 1381 1569 
Q 847 1681 609 1914 
Q 372 2147 372 2553 
Q 372 3047 722 3315 
Q 1072 3584 1716 3584 
Q 2034 3584 2315 3537 
Q 2597 3491 2834 3397 
z
" transform="scale(0.015625)"/>
       <path id="DejaVuSans-5f" d="M 3263 -1063 
L 3263 -1509 
L -63 -1509 
L -63 -1063 
L 3263 -1063 
z
" transform="scale(0.015625)"/>
       <path id="DejaVuSans-63" d="M 3122 3366 
L 3122 2828 
Q 2878 2963 2633 3030 
Q 2388 3097 2138 3097 
Q 1578 3097 1268 2742 
Q 959 2388 959 1747 
Q 959 1106 1268 751 
Q 1578 397 2138 397 
Q 2388 397 2633 464 
Q 2878 531 3122 666 
L 3122 134 
Q 2881 22 2623 -34 
Q 2366 -91 2075 -91 
Q 1284 -91 818 406 
Q 353 903 353 1747 
Q 353 2603 823 3093 
Q 1294 3584 2113 3584 
Q 2378 3584 2631 3529 
Q 2884 3475 3122 3366 
z
" transform="scale(0.015625)"/>
       <path id="DejaVuSans-79" d="M 2059 -325 
Q 1816 -950 1584 -1140 
Q 1353 -1331 966 -1331 
L 506 -1331 
L 506 -850 
L 844 -850 
Q 1081 -850 1212 -737 
Q 1344 -625 1503 -206 
L 1606 56 
L 191 3500 
L 800 3500 
L 1894 763 
L 2988 3500 
L 3597 3500 
L 2059 -325 
z
" transform="scale(0.015625)"/>
       <path id="DejaVuSans-70" d="M 1159 525 
L 1159 -1331 
L 581 -1331 
L 581 3500 
L 1159 3500 
L 1159 2969 
Q 1341 3281 1617 3432 
Q 1894 3584 2278 3584 
Q 2916 3584 3314 3078 
Q 3713 2572 3713 1747 
Q 3713 922 3314 415 
Q 2916 -91 2278 -91 
Q 1894 -91 1617 61 
Q 1341 213 1159 525 
z
M 3116 1747 
Q 3116 2381 2855 2742 
Q 2594 3103 2138 3103 
Q 1681 3103 1420 2742 
Q 1159 2381 1159 1747 
Q 1159 1113 1420 752 
Q 1681 391 2138 391 
Q 2594 391 2855 752 
Q 3116 1113 3116 1747 
z
" transform="scale(0.015625)"/>
       <path id="DejaVuSans-29" d="M 513 4856 
L 1013 4856 
Q 1481 4119 1714 3412 
Q 1947 2706 1947 2009 
Q 1947 1309 1714 600 
Q 1481 -109 1013 -844 
L 513 -844 
Q 928 -128 1133 580 
Q 1338 1288 1338 2009 
Q 1338 2731 1133 3434 
Q 928 4138 513 4856 
z
" transform="scale(0.015625)"/>
      </defs>
      <use xlink:href="#DejaVuSans-54"/>
      <use xlink:href="#DejaVuSans-77" transform="translate(44.583984 0)"/>
      <use xlink:href="#DejaVuSans-65" transform="translate(126.371094 0)"/>
      <use xlink:href="#DejaVuSans-65" transform="translate(187.894531 0)"/>
      <use xlink:href="#DejaVuSans-74" transform="translate(249.417969 0)"/>
      <use xlink:href="#DejaVuSans-20" transform="translate(288.626953 0)"/>
      <use xlink:href="#DejaVuSans-43" transform="translate(320.414062 0)"/>
      <use xlink:href="#DejaVuSans-6f" transform="translate(390.238281 0)"/>
      <use xlink:href="#DejaVuSans-75" transform="translate(451.419922 0)"/>
      <use xlink:href="#DejaVuSans-6e" transform="translate(514.798828 0)"/>
      <use xlink:href="#DejaVuSans-74" transform="translate(578.177734 0)"/>
      <use xlink:href="#DejaVuSans-20" transform="translate(617.386719 0)"/>
      <use xlink:href="#DejaVuSans-28" transform="translate(649.173828 0)"/>
      <use xlink:href="#DejaVuSans-6c" transform="translate(688.1875 0)"/>
      <use xlink:href="#DejaVuSans-61" transform="translate(715.970703 0)"/>
      <use xlink:href="#DejaVuSans-73" transform="translate(777.25 0)"/>
      <use xlink:href="#DejaVuSans-74" transform="translate(829.349609 0)"/>
      <use xlink:href="#DejaVuSans-5f" transform="translate(868.558594 0)"/>
      <use xlink:href="#DejaVuSans-63" transform="translate(918.558594 0)"/>
      <use xlink:href="#DejaVuSans-79" transform="translate(973.539062 0)"/>
      <use xlink:href="#DejaVuSans-63" transform="translate(1032.71875 0)"/>
      <use xlink:href="#DejaVuSans-6c" transform="translate(1087.699219 0)"/>
      <use xlink:href="#DejaVuSans-65" transform="translate(1115.482422 0)"/>
      <use xlink:href="#DejaVuSans-20" transform="translate(1177.005859 0)"/>
      <use xlink:href="#DejaVuSans-70" transform="translate(1208.792969 0)"/>
      <use xlink:href="#DejaVuSans-6f" transform="translate(1272.269531 0)"/>
      <use xlink:href="#DejaVuSans-73" transform="translate(1333.451172 0)"/>
      <use xlink:href="#DejaVuSans-74" transform="translate(1385.550781 0)"/>
      <use xlink:href="#DejaVuSans-73" transform="translate(1424.759766 0)"/>
      <use xlink:href="#DejaVuSans-5f" transform="translate(1476.859375 0)"/>
      <use xlink:href="#DejaVuSans-74" transform="translate(1526.859375 0)"/>
      <use xlink:href="#DejaVuSans-6f" transform="translate(1566.068359 0)"/>
      <use xlink:href="#DejaVuSans-74" transform="translate(1627.25 0)"/>
      <use xlink:href="#DejaVuSans-61" transform="translate(1666.458984 0)"/>
      <use xlink:href="#DejaVuSans-6c" transform="translate(1727.738281 0)"/>
      <use xlink:href="#DejaVuSans-29" transform="translate(1755.521484 0)"/>
     </g>
    </g>
   </g>
   <g id="matplotlib.axis_2">
    <g id="ytick_1">
     <g id="line2d_10">
      <path d="M 57.89 371.17375 
L 709.2 371.17375 
" clip-path="url(#paca5a0e526)" style="fill: none; stroke: #b0b0b0; stroke-opacity: 0.3; stroke-width: 0.8; stroke-linecap: square"/>
     </g>
     <g id="line2d_11">
      <defs>
       <path id="mb8a60c3739" d="M 0 0 
L -3.5 0 
" style="stroke: #000000; stroke-width: 0.8"/>
      </defs>
      <g>
       <use xlink:href="#mb8a60c3739" x="57.89" y="371.17375" style="stroke: #000000; stroke-width: 0.8"/>
      </g>
     </g>
     <g id="text_11">
      <!-- 0 -->
      <g transform="translate(44.5275 374.972969) scale(0.1 -0.1)">
       <use xlink:href="#DejaVuSans-30"/>
      </g>
     </g>
    </g>
    <g id="ytick_2">
     <g id="line2d_12">
      <path d="M 57.89 324.524287 
L 709.2 324.524287 
" clip-path="url(#paca5a0e526)" style="fill: none; stroke: #b0b0b0; stroke-opacity: 0.3; stroke-width: 0.8; stroke-linecap: square"/>
     </g>
     <g id="line2d_13">
      <g>
       <use xlink:href="#mb8a60c3739" x="57.89" y="324.524287" style="stroke: #000000; stroke-width: 0.8"/>
      </g>
     </g>
     <g id="text_12">
      <!-- 500 -->
      <g transform="translate(31.8025 328.323506) scale(0.1 -0.1)">
       <use xlink:href="#DejaVuSans-35"/>
       <use xlink:href="#DejaVuSans-30" transform="translate(63.623047 0)"/>
       <use xlink:href="#DejaVuSans-30" transform="translate(127.246094 0)"/>
      </g>
     </g>
    </g>
    <g id="ytick_3">
     <g id="line2d_14">
      <path d="M 57.89 277.874824 
L 709.2 277.874824 
" clip-path="url(#paca5a0e526)" style="fill: none; stroke: #b0b0b0; stroke-opacity: 0.3; stroke-width: 0.8; stroke-linecap: square"/>
     </g>
     <g id="line2d_15">
      <g>
       <use xlink:href="#mb8a60c3739" x="57.89" y="277.874824" style="stroke: #000000; stroke-width: 0.8"/>
      </g>
     </g>
     <g id="text_13">
      <!-- 1000 -->
      <g transform="translate(25.44 281.674043) scale(0.1 -0.1)">
       <use xlink:href="#DejaVuSans-31"/>
       <use xlink:href="#DejaVuSans-30" transform="translate(63.623047 0)"/>
       <use xlink:href="#DejaVuSans-30" transform="translate(127.246094 0)"/>
       <use xlink:href="#DejaVuSans-30" transform="translate(190.869141 0)"/>
      </g>
     </g>
    </g>
    <g id="ytick_4">
     <g id="line2d_16">
      <path d="M 57.89 231.225362 
L 709.2 231.225362 
" clip-path="url(#paca5a0e526)" style="fill: none; stroke: #b0b0b0; stroke-opacity: 0.3; stroke-width: 0.8; stroke-linecap: square"/>
     </g>
     <g id="line2d_17">
      <g>
       <use xlink:href="#mb8a60c3739" x="57.89" y="231.225362" style="stroke: #000000; stroke-width: 0.8"/>
      </g>
     </g>
     <g id="text_14">
      <!-- 1500 -->
      <g transform="translate(25.44 235.02458) scale(0.1 -0.1)">
       <use xlink:href="#DejaVuSans-31"/>
       <use xlink:href="#DejaVuSans-35" transform="translate(63.623047 0)"/>
       <use xlink:href="#DejaVuSans-30" transform="translate(127.246094 0)"/>
       <use xlink:href="#DejaVuSans-30" transform="translate(190.869141 0)"/>
      </g>
     </g>
    </g>
    <g id="ytick_5">
     <g id="line2d_18">
      <path d="M 57.89 184.575899 
L 709.2 184.575899 
" clip-path="url(#paca5a0e526)" style="fill: none; stroke: #b0b0b0; stroke-opacity: 0.3; stroke-width: 0.8; stroke-linecap: square"/>
     </g>
     <g id="line2d_19">
      <g>
       <use xlink:href="#mb8a60c3739" x="57.89" y="184.575899" style="stroke: #000000; stroke-width: 0.8"/>
      </g>
     </g>
     <g id="text_15">
      <!-- 2000 -->
      <g transform="translate(25.44 188.375118) scale(0.1 -0.1)">
       <use xlink:href="#DejaVuSans-32"/>
       <use xlink:href="#DejaVuSans-30" transform="translate(63.623047 0)"/>
       <use xlink:href="#DejaVuSans-30" transform="translate(127.246094 0)"/>
       <use xlink:href="#DejaVuSans-30" transform="translate(190.869141 0)"/>
      </g>
     </g>
    </g>
    <g id="ytick_6">
     <g id="line2d_20">
      <path d="M 57.89 137.926436 
L 709.2 137.926436 
" clip-path="url(#paca5a0e526)" style="fill: none; stroke: #b0b0b0; stroke-opacity: 0.3; stroke-width: 0.8; stroke-linecap: square"/>
     </g>
     <g id="line2d_21">
      <g>
       <use xlink:href="#mb8a60c3739" x="57.89" y="137.926436" style="stroke: #000000; stroke-width: 0.8"/>
      </g>
     </g>
     <g id="text_16">
      <!-- 2500 -->
      <g transform="translate(25.44 141.725655) scale(0.1 -0.1)">
       <use xlink:href="#DejaVuSans-32"/>
       <use xlink:href="#DejaVuSans-35" transform="translate(63.623047 0)"/>
       <use xlink:href="#DejaVuSans-30" transform="translate(127.246094 0)"/>
       <use xlink:href="#DejaVuSans-30" transform="translate(190.869141 0)"/>
      </g>
     </g>
    </g>
    <g id="ytick_7">
     <g id="line2d_22">
      <path d="M 57.89 91.276973 
L 709.2 91.276973 
" clip-path="url(#paca5a0e526)" style="fill: none; stroke: #b0b0b0; stroke-opacity: 0.3; stroke-width: 0.8; stroke-linecap: square"/>
     </g>
     <g id="line2d_23">
      <g>
       <use xlink:href="#mb8a60c3739" x="57.89" y="91.276973" style="stroke: #000000; stroke-width: 0.8"/>
      </g>
     </g>
     <g id="text_17">
      <!-- 3000 -->
      <g transform="translate(25.44 95.076192) scale(0.1 -0.1)">
       <use xlink:href="#DejaVuSans-33"/>
       <use xlink:href="#DejaVuSans-30" transform="translate(63.623047 0)"/>
       <use xlink:href="#DejaVuSans-30" transform="translate(127.246094 0)"/>
       <use xlink:href="#DejaVuSans-30" transform="translate(190.869141 0)"/>
      </g>
     </g>
    </g>
    <g id="text_18">
     <!-- Frequency -->
     <g transform="translate(19.152344 247.399531) rotate(-90) scale(0.11 -0.11)">
      <defs>
       <path id="DejaVuSans-46" d="M 628 4666 
L 3309 4666 
L 3309 4134 
L 1259 4134 
L 1259 2759 
L 3109 2759 
L 3109 2228 
L 1259 2228 
L 1259 0 
L 628 0 
L 628 4666 
z
" transform="scale(0.015625)"/>
       <path id="DejaVuSans-72" d="M 2631 2963 
Q 2534 3019 2420 3045 
Q 2306 3072 2169 3072 
Q 1681 3072 1420 2755 
Q 1159 2438 1159 1844 
L 1159 0 
L 581 0 
L 581 3500 
L 1159 3500 
L 1159 2956 
Q 1341 3275 1631 3429 
Q 1922 3584 2338 3584 
Q 2397 3584 2469 3576 
Q 2541 3569 2628 3553 
L 2631 2963 
z
" transform="scale(0.015625)"/>
       <path id="DejaVuSans-71" d="M 947 1747 
Q 947 1113 1208 752 
Q 1469 391 1925 391 
Q 2381 391 2643 752 
Q 2906 1113 2906 1747 
Q 2906 2381 2643 2742 
Q 2381 3103 1925 3103 
Q 1469 3103 1208 2742 
Q 947 2381 947 1747 
z
M 2906 525 
Q 2725 213 2448 61 
Q 2172 -91 1784 -91 
Q 1150 -91 751 415 
Q 353 922 353 1747 
Q 353 2572 751 3078 
Q 1150 3584 1784 3584 
Q 2172 3584 2448 3432 
Q 2725 3281 2906 2969 
L 2906 3500 
L 3481 3500 
L 3481 -1331 
L 2906 -1331 
L 2906 525 
z
" transform="scale(0.015625)"/>
      </defs>
      <use xlink:href="#DejaVuSans-46"/>
      <use xlink:href="#DejaVuSans-72" transform="translate(50.269531 0)"/>
      <use xlink:href="#DejaVuSans-65" transform="translate(89.132812 0)"/>
      <use xlink:href="#DejaVuSans-71" transform="translate(150.65625 0)"/>
      <use xlink:href="#DejaVuSans-75" transform="translate(214.132812 0)"/>
      <use xlink:href="#DejaVuSans-65" transform="translate(277.511719 0)"/>
      <use xlink:href="#DejaVuSans-6e" transform="translate(339.035156 0)"/>
      <use xlink:href="#DejaVuSans-63" transform="translate(402.414062 0)"/>
      <use xlink:href="#DejaVuSans-79" transform="translate(457.394531 0)"/>
     </g>
    </g>
   </g>
   <g id="patch_53">
    <path d="M 57.89 371.17375 
L 57.89 66.8 
" style="fill: none; stroke: #000000; stroke-width: 0.8; stroke-linejoin: miter; stroke-linecap: square"/>
   </g>
   <g id="patch_54">
    <path d="M 709.2 371.17375 
L 709.2 66.8 
" style="fill: none; stroke: #000000; stroke-width: 0.8; stroke-linejoin: miter; stroke-linecap: square"/>
   </g>
   <g id="patch_55">
    <path d="M 57.89 371.17375 
L 709.2 371.17375 
" style="fill: none; stroke: #000000; stroke-width: 0.8; stroke-linejoin: miter; stroke-linecap: square"/>
   </g>
   <g id="patch_56">
    <path d="M 57.89 66.8 
L 709.2 66.8 
" style="fill: none; stroke: #000000; stroke-width: 0.8; stroke-linejoin: miter; stroke-linecap: square"/>
   </g>
   <g id="text_19">
    <!-- Tweet Volume Distribution (Single Cycle) -->
    <g transform="translate(233.662109 46.8) scale(0.13 -0.13)">
     <defs>
      <path id="DejaVuSans-Bold-54" d="M 31 4666 
L 4331 4666 
L 4331 3756 
L 2784 3756 
L 2784 0 
L 1581 0 
L 1581 3756 
L 31 3756 
L 31 4666 
z
" transform="scale(0.015625)"/>
      <path id="DejaVuSans-Bold-77" d="M 225 3500 
L 1313 3500 
L 1900 1088 
L 2491 3500 
L 3425 3500 
L 4013 1113 
L 4603 3500 
L 5691 3500 
L 4769 0 
L 3547 0 
L 2956 2406 
L 2369 0 
L 1147 0 
L 225 3500 
z
" transform="scale(0.015625)"/>
      <path id="DejaVuSans-Bold-65" d="M 4031 1759 
L 4031 1441 
L 1416 1441 
Q 1456 1047 1700 850 
Q 1944 653 2381 653 
Q 2734 653 3104 758 
Q 3475 863 3866 1075 
L 3866 213 
Q 3469 63 3072 -14 
Q 2675 -91 2278 -91 
Q 1328 -91 801 392 
Q 275 875 275 1747 
Q 275 2603 792 3093 
Q 1309 3584 2216 3584 
Q 3041 3584 3536 3087 
Q 4031 2591 4031 1759 
z
M 2881 2131 
Q 2881 2450 2695 2645 
Q 2509 2841 2209 2841 
Q 1884 2841 1681 2658 
Q 1478 2475 1428 2131 
L 2881 2131 
z
" transform="scale(0.015625)"/>
      <path id="DejaVuSans-Bold-74" d="M 1759 4494 
L 1759 3500 
L 2913 3500 
L 2913 2700 
L 1759 2700 
L 1759 1216 
Q 1759 972 1856 886 
Q 1953 800 2241 800 
L 2816 800 
L 2816 0 
L 1856 0 
Q 1194 0 917 276 
Q 641 553 641 1216 
L 641 2700 
L 84 2700 
L 84 3500 
L 641 3500 
L 641 4494 
L 1759 4494 
z
" transform="scale(0.015625)"/>
      <path id="DejaVuSans-Bold-20" transform="scale(0.015625)"/>
      <path id="DejaVuSans-Bold-56" d="M 31 4666 
L 1241 4666 
L 2478 1222 
L 3713 4666 
L 4922 4666 
L 3194 0 
L 1759 0 
L 31 4666 
z
" transform="scale(0.015625)"/>
      <path id="DejaVuSans-Bold-6f" d="M 2203 2784 
Q 1831 2784 1636 2517 
Q 1441 2250 1441 1747 
Q 1441 1244 1636 976 
Q 1831 709 2203 709 
Q 2569 709 2762 976 
Q 2956 1244 2956 1747 
Q 2956 2250 2762 2517 
Q 2569 2784 2203 2784 
z
M 2203 3584 
Q 3106 3584 3614 3096 
Q 4122 2609 4122 1747 
Q 4122 884 3614 396 
Q 3106 -91 2203 -91 
Q 1297 -91 786 396 
Q 275 884 275 1747 
Q 275 2609 786 3096 
Q 1297 3584 2203 3584 
z
" transform="scale(0.015625)"/>
      <path id="DejaVuSans-Bold-6c" d="M 538 4863 
L 1656 4863 
L 1656 0 
L 538 0 
L 538 4863 
z
" transform="scale(0.015625)"/>
      <path id="DejaVuSans-Bold-75" d="M 500 1363 
L 500 3500 
L 1625 3500 
L 1625 3150 
Q 1625 2866 1622 2436 
Q 1619 2006 1619 1863 
Q 1619 1441 1641 1255 
Q 1663 1069 1716 984 
Q 1784 875 1895 815 
Q 2006 756 2150 756 
Q 2500 756 2700 1025 
Q 2900 1294 2900 1772 
L 2900 3500 
L 4019 3500 
L 4019 0 
L 2900 0 
L 2900 506 
Q 2647 200 2364 54 
Q 2081 -91 1741 -91 
Q 1134 -91 817 281 
Q 500 653 500 1363 
z
" transform="scale(0.015625)"/>
      <path id="DejaVuSans-Bold-6d" d="M 3781 2919 
Q 3994 3244 4286 3414 
Q 4578 3584 4928 3584 
Q 5531 3584 5847 3212 
Q 6163 2841 6163 2131 
L 6163 0 
L 5038 0 
L 5038 1825 
Q 5041 1866 5042 1909 
Q 5044 1953 5044 2034 
Q 5044 2406 4934 2573 
Q 4825 2741 4581 2741 
Q 4263 2741 4089 2478 
Q 3916 2216 3909 1719 
L 3909 0 
L 2784 0 
L 2784 1825 
Q 2784 2406 2684 2573 
Q 2584 2741 2328 2741 
Q 2006 2741 1831 2477 
Q 1656 2213 1656 1722 
L 1656 0 
L 531 0 
L 531 3500 
L 1656 3500 
L 1656 2988 
Q 1863 3284 2130 3434 
Q 2397 3584 2719 3584 
Q 3081 3584 3359 3409 
Q 3638 3234 3781 2919 
z
" transform="scale(0.015625)"/>
      <path id="DejaVuSans-Bold-44" d="M 1791 3756 
L 1791 909 
L 2222 909 
Q 2959 909 3348 1275 
Q 3738 1641 3738 2338 
Q 3738 3031 3350 3393 
Q 2963 3756 2222 3756 
L 1791 3756 
z
M 588 4666 
L 1856 4666 
Q 2919 4666 3439 4514 
Q 3959 4363 4331 4000 
Q 4659 3684 4818 3271 
Q 4978 2859 4978 2338 
Q 4978 1809 4818 1395 
Q 4659 981 4331 666 
Q 3956 303 3431 151 
Q 2906 0 1856 0 
L 588 0 
L 588 4666 
z
" transform="scale(0.015625)"/>
      <path id="DejaVuSans-Bold-69" d="M 538 3500 
L 1656 3500 
L 1656 0 
L 538 0 
L 538 3500 
z
M 538 4863 
L 1656 4863 
L 1656 3950 
L 538 3950 
L 538 4863 
z
" transform="scale(0.015625)"/>
      <path id="DejaVuSans-Bold-73" d="M 3272 3391 
L 3272 2541 
Q 2913 2691 2578 2766 
Q 2244 2841 1947 2841 
Q 1628 2841 1473 2761 
Q 1319 2681 1319 2516 
Q 1319 2381 1436 2309 
Q 1553 2238 1856 2203 
L 2053 2175 
Q 2913 2066 3209 1816 
Q 3506 1566 3506 1031 
Q 3506 472 3093 190 
Q 2681 -91 1863 -91 
Q 1516 -91 1145 -36 
Q 775 19 384 128 
L 384 978 
Q 719 816 1070 734 
Q 1422 653 1784 653 
Q 2113 653 2278 743 
Q 2444 834 2444 1013 
Q 2444 1163 2330 1236 
Q 2216 1309 1875 1350 
L 1678 1375 
Q 931 1469 631 1722 
Q 331 1975 331 2491 
Q 331 3047 712 3315 
Q 1094 3584 1881 3584 
Q 2191 3584 2531 3537 
Q 2872 3491 3272 3391 
z
" transform="scale(0.015625)"/>
      <path id="DejaVuSans-Bold-72" d="M 3138 2547 
Q 2991 2616 2845 2648 
Q 2700 2681 2553 2681 
Q 2122 2681 1889 2404 
Q 1656 2128 1656 1613 
L 1656 0 
L 538 0 
L 538 3500 
L 1656 3500 
L 1656 2925 
Q 1872 3269 2151 3426 
Q 2431 3584 2822 3584 
Q 2878 3584 2943 3579 
Q 3009 3575 3134 3559 
L 3138 2547 
z
" transform="scale(0.015625)"/>
      <path id="DejaVuSans-Bold-62" d="M 2400 722 
Q 2759 722 2948 984 
Q 3138 1247 3138 1747 
Q 3138 2247 2948 2509 
Q 2759 2772 2400 2772 
Q 2041 2772 1848 2508 
Q 1656 2244 1656 1747 
Q 1656 1250 1848 986 
Q 2041 722 2400 722 
z
M 1656 2988 
Q 1888 3294 2169 3439 
Q 2450 3584 2816 3584 
Q 3463 3584 3878 3070 
Q 4294 2556 4294 1747 
Q 4294 938 3878 423 
Q 3463 -91 2816 -91 
Q 2450 -91 2169 54 
Q 1888 200 1656 506 
L 1656 0 
L 538 0 
L 538 4863 
L 1656 4863 
L 1656 2988 
z
" transform="scale(0.015625)"/>
      <path id="DejaVuSans-Bold-6e" d="M 4056 2131 
L 4056 0 
L 2931 0 
L 2931 347 
L 2931 1631 
Q 2931 2084 2911 2256 
Q 2891 2428 2841 2509 
Q 2775 2619 2662 2680 
Q 2550 2741 2406 2741 
Q 2056 2741 1856 2470 
Q 1656 2200 1656 1722 
L 1656 0 
L 538 0 
L 538 3500 
L 1656 3500 
L 1656 2988 
Q 1909 3294 2193 3439 
Q 2478 3584 2822 3584 
Q 3428 3584 3742 3212 
Q 4056 2841 4056 2131 
z
" transform="scale(0.015625)"/>
      <path id="DejaVuSans-Bold-28" d="M 2413 -844 
L 1484 -844 
Q 1006 -72 778 623 
Q 550 1319 550 2003 
Q 550 2688 779 3389 
Q 1009 4091 1484 4856 
L 2413 4856 
Q 2013 4116 1813 3408 
Q 1613 2700 1613 2009 
Q 1613 1319 1811 609 
Q 2009 -100 2413 -844 
z
" transform="scale(0.015625)"/>
      <path id="DejaVuSans-Bold-53" d="M 3834 4519 
L 3834 3531 
Q 3450 3703 3084 3790 
Q 2719 3878 2394 3878 
Q 1963 3878 1756 3759 
Q 1550 3641 1550 3391 
Q 1550 3203 1689 3098 
Q 1828 2994 2194 2919 
L 2706 2816 
Q 3484 2659 3812 2340 
Q 4141 2022 4141 1434 
Q 4141 663 3683 286 
Q 3225 -91 2284 -91 
Q 1841 -91 1394 -6 
Q 947 78 500 244 
L 500 1259 
Q 947 1022 1364 901 
Q 1781 781 2169 781 
Q 2563 781 2772 912 
Q 2981 1044 2981 1288 
Q 2981 1506 2839 1625 
Q 2697 1744 2272 1838 
L 1806 1941 
Q 1106 2091 782 2419 
Q 459 2747 459 3303 
Q 459 4000 909 4375 
Q 1359 4750 2203 4750 
Q 2588 4750 2994 4692 
Q 3400 4634 3834 4519 
z
" transform="scale(0.015625)"/>
      <path id="DejaVuSans-Bold-67" d="M 2919 594 
Q 2688 288 2409 144 
Q 2131 0 1766 0 
Q 1125 0 706 504 
Q 288 1009 288 1791 
Q 288 2575 706 3076 
Q 1125 3578 1766 3578 
Q 2131 3578 2409 3434 
Q 2688 3291 2919 2981 
L 2919 3500 
L 4044 3500 
L 4044 353 
Q 4044 -491 3511 -936 
Q 2978 -1381 1966 -1381 
Q 1638 -1381 1331 -1331 
Q 1025 -1281 716 -1178 
L 716 -306 
Q 1009 -475 1290 -558 
Q 1572 -641 1856 -641 
Q 2406 -641 2662 -400 
Q 2919 -159 2919 353 
L 2919 594 
z
M 2181 2772 
Q 1834 2772 1640 2515 
Q 1447 2259 1447 1791 
Q 1447 1309 1634 1061 
Q 1822 813 2181 813 
Q 2531 813 2725 1069 
Q 2919 1325 2919 1791 
Q 2919 2259 2725 2515 
Q 2531 2772 2181 2772 
z
" transform="scale(0.015625)"/>
      <path id="DejaVuSans-Bold-43" d="M 4288 256 
Q 3956 84 3597 -3 
Q 3238 -91 2847 -91 
Q 1681 -91 1000 561 
Q 319 1213 319 2328 
Q 319 3447 1000 4098 
Q 1681 4750 2847 4750 
Q 3238 4750 3597 4662 
Q 3956 4575 4288 4403 
L 4288 3438 
Q 3953 3666 3628 3772 
Q 3303 3878 2944 3878 
Q 2300 3878 1931 3465 
Q 1563 3053 1563 2328 
Q 1563 1606 1931 1193 
Q 2300 781 2944 781 
Q 3303 781 3628 887 
Q 3953 994 4288 1222 
L 4288 256 
z
" transform="scale(0.015625)"/>
      <path id="DejaVuSans-Bold-79" d="M 78 3500 
L 1197 3500 
L 2138 1125 
L 2938 3500 
L 4056 3500 
L 2584 -331 
Q 2363 -916 2067 -1148 
Q 1772 -1381 1288 -1381 
L 641 -1381 
L 641 -647 
L 991 -647 
Q 1275 -647 1404 -556 
Q 1534 -466 1606 -231 
L 1638 -134 
L 78 3500 
z
" transform="scale(0.015625)"/>
      <path id="DejaVuSans-Bold-63" d="M 3366 3391 
L 3366 2478 
Q 3138 2634 2908 2709 
Q 2678 2784 2431 2784 
Q 1963 2784 1702 2511 
Q 1441 2238 1441 1747 
Q 1441 1256 1702 982 
Q 1963 709 2431 709 
Q 2694 709 2930 787 
Q 3166 866 3366 1019 
L 3366 103 
Q 3103 6 2833 -42 
Q 2563 -91 2291 -91 
Q 1344 -91 809 395 
Q 275 881 275 1747 
Q 275 2613 809 3098 
Q 1344 3584 2291 3584 
Q 2566 3584 2833 3536 
Q 3100 3488 3366 3391 
z
" transform="scale(0.015625)"/>
      <path id="DejaVuSans-Bold-29" d="M 513 -844 
Q 913 -100 1113 609 
Q 1313 1319 1313 2009 
Q 1313 2700 1113 3408 
Q 913 4116 513 4856 
L 1441 4856 
Q 1916 4091 2145 3389 
Q 2375 2688 2375 2003 
Q 2375 1319 2147 623 
Q 1919 -72 1441 -844 
L 513 -844 
z
" transform="scale(0.015625)"/>
     </defs>
     <use xlink:href="#DejaVuSans-Bold-54"/>
     <use xlink:href="#DejaVuSans-Bold-77" transform="translate(57.212891 0)"/>
     <use xlink:href="#DejaVuSans-Bold-65" transform="translate(149.595703 0)"/>
     <use xlink:href="#DejaVuSans-Bold-65" transform="translate(217.417969 0)"/>
     <use xlink:href="#DejaVuSans-Bold-74" transform="translate(285.240234 0)"/>
     <use xlink:href="#DejaVuSans-Bold-20" transform="translate(333.042969 0)"/>
     <use xlink:href="#DejaVuSans-Bold-56" transform="translate(367.857422 0)"/>
     <use xlink:href="#DejaVuSans-Bold-6f" transform="translate(439.75 0)"/>
     <use xlink:href="#DejaVuSans-Bold-6c" transform="translate(508.451172 0)"/>
     <use xlink:href="#DejaVuSans-Bold-75" transform="translate(542.728516 0)"/>
     <use xlink:href="#DejaVuSans-Bold-6d" transform="translate(613.919922 0)"/>
     <use xlink:href="#DejaVuSans-Bold-65" transform="translate(718.119141 0)"/>
     <use xlink:href="#DejaVuSans-Bold-20" transform="translate(785.941406 0)"/>
     <use xlink:href="#DejaVuSans-Bold-44" transform="translate(820.755859 0)"/>
     <use xlink:href="#DejaVuSans-Bold-69" transform="translate(903.763672 0)"/>
     <use xlink:href="#DejaVuSans-Bold-73" transform="translate(938.041016 0)"/>
     <use xlink:href="#DejaVuSans-Bold-74" transform="translate(997.5625 0)"/>
     <use xlink:href="#DejaVuSans-Bold-72" transform="translate(1045.365234 0)"/>
     <use xlink:href="#DejaVuSans-Bold-69" transform="translate(1094.681641 0)"/>
     <use xlink:href="#DejaVuSans-Bold-62" transform="translate(1128.958984 0)"/>
     <use xlink:href="#DejaVuSans-Bold-75" transform="translate(1200.541016 0)"/>
     <use xlink:href="#DejaVuSans-Bold-74" transform="translate(1271.732422 0)"/>
     <use xlink:href="#DejaVuSans-Bold-69" transform="translate(1319.535156 0)"/>
     <use xlink:href="#DejaVuSans-Bold-6f" transform="translate(1353.8125 0)"/>
     <use xlink:href="#DejaVuSans-Bold-6e" transform="translate(1422.513672 0)"/>
     <use xlink:href="#DejaVuSans-Bold-20" transform="translate(1493.705078 0)"/>
     <use xlink:href="#DejaVuSans-Bold-28" transform="translate(1528.519531 0)"/>
     <use xlink:href="#DejaVuSans-Bold-53" transform="translate(1574.222656 0)"/>
     <use xlink:href="#DejaVuSans-Bold-69" transform="translate(1646.244141 0)"/>
     <use xlink:href="#DejaVuSans-Bold-6e" transform="translate(1680.521484 0)"/>
     <use xlink:href="#DejaVuSans-Bold-67" transform="translate(1751.712891 0)"/>
     <use xlink:href="#DejaVuSans-Bold-6c" transform="translate(1823.294922 0)"/>
     <use xlink:href="#DejaVuSans-Bold-65" transform="translate(1857.572266 0)"/>
     <use xlink:href="#DejaVuSans-Bold-20" transform="translate(1925.394531 0)"/>
     <use xlink:href="#DejaVuSans-Bold-43" transform="translate(1960.208984 0)"/>
     <use xlink:href="#DejaVuSans-Bold-79" transform="translate(2033.597656 0)"/>
     <use xlink:href="#DejaVuSans-Bold-63" transform="translate(2098.783203 0)"/>
     <use xlink:href="#DejaVuSans-Bold-6c" transform="translate(2158.060547 0)"/>
     <use xlink:href="#DejaVuSans-Bold-65" transform="translate(2192.337891 0)"/>
     <use xlink:href="#DejaVuSans-Bold-29" transform="translate(2260.160156 0)"/>
    </g>
   </g>
  </g>
  <g id="text_20">
   <!-- Population: All usable v7 snapshots across all symbols | N=10,711 | Date range: 2025-12-14..2025-12-19 UTC -->
   <g style="fill: #808080" transform="translate(139.899375 34.56) scale(0.08 -0.08)">
    <defs>
     <path id="DejaVuSans-50" d="M 1259 4147 
L 1259 2394 
L 2053 2394 
Q 2494 2394 2734 2622 
Q 2975 2850 2975 3272 
Q 2975 3691 2734 3919 
Q 2494 4147 2053 4147 
L 1259 4147 
z
M 628 4666 
L 2053 4666 
Q 2838 4666 3239 4311 
Q 3641 3956 3641 3272 
Q 3641 2581 3239 2228 
Q 2838 1875 2053 1875 
L 1259 1875 
L 1259 0 
L 628 0 
L 628 4666 
z
" transform="scale(0.015625)"/>
     <path id="DejaVuSans-69" d="M 603 3500 
L 1178 3500 
L 1178 0 
L 603 0 
L 603 3500 
z
M 603 4863 
L 1178 4863 
L 1178 4134 
L 603 4134 
L 603 4863 
z
" transform="scale(0.015625)"/>
     <path id="DejaVuSans-3a" d="M 750 794 
L 1409 794 
L 1409 0 
L 750 0 
L 750 794 
z
M 750 3309 
L 1409 3309 
L 1409 2516 
L 750 2516 
L 750 3309 
z
" transform="scale(0.015625)"/>
     <path id="DejaVuSans-41" d="M 2188 4044 
L 1331 1722 
L 3047 1722 
L 2188 4044 
z
M 1831 4666 
L 2547 4666 
L 4325 0 
L 3669 0 
L 3244 1197 
L 1141 1197 
L 716 0 
L 50 0 
L 1831 4666 
z
" transform="scale(0.015625)"/>
     <path id="DejaVuSans-62" d="M 3116 1747 
Q 3116 2381 2855 2742 
Q 2594 3103 2138 3103 
Q 1681 3103 1420 2742 
Q 1159 2381 1159 1747 
Q 1159 1113 1420 752 
Q 1681 391 2138 391 
Q 2594 391 2855 752 
Q 3116 1113 3116 1747 
z
M 1159 2969 
Q 1341 3281 1617 3432 
Q 1894 3584 2278 3584 
Q 2916 3584 3314 3078 
Q 3713 2572 3713 1747 
Q 3713 922 3314 415 
Q 2916 -91 2278 -91 
Q 1894 -91 1617 61 
Q 1341 213 1159 525 
L 1159 0 
L 581 0 
L 581 4863 
L 1159 4863 
L 1159 2969 
z
" transform="scale(0.015625)"/>
     <path id="DejaVuSans-76" d="M 191 3500 
L 800 3500 
L 1894 563 
L 2988 3500 
L 3597 3500 
L 2284 0 
L 1503 0 
L 191 3500 
z
" transform="scale(0.015625)"/>
     <path id="DejaVuSans-68" d="M 3513 2113 
L 3513 0 
L 2938 0 
L 2938 2094 
Q 2938 2591 2744 2837 
Q 2550 3084 2163 3084 
Q 1697 3084 1428 2787 
Q 1159 2491 1159 1978 
L 1159 0 
L 581 0 
L 581 4863 
L 1159 4863 
L 1159 2956 
Q 1366 3272 1645 3428 
Q 1925 3584 2291 3584 
Q 2894 3584 3203 3211 
Q 3513 2838 3513 2113 
z
" transform="scale(0.015625)"/>
     <path id="DejaVuSans-6d" d="M 3328 2828 
Q 3544 3216 3844 3400 
Q 4144 3584 4550 3584 
Q 5097 3584 5394 3201 
Q 5691 2819 5691 2113 
L 5691 0 
L 5113 0 
L 5113 2094 
Q 5113 2597 4934 2840 
Q 4756 3084 4391 3084 
Q 3944 3084 3684 2787 
Q 3425 2491 3425 1978 
L 3425 0 
L 2847 0 
L 2847 2094 
Q 2847 2600 2669 2842 
Q 2491 3084 2119 3084 
Q 1678 3084 1418 2786 
Q 1159 2488 1159 1978 
L 1159 0 
L 581 0 
L 581 3500 
L 1159 3500 
L 1159 2956 
Q 1356 3278 1631 3431 
Q 1906 3584 2284 3584 
Q 2666 3584 2933 3390 
Q 3200 3197 3328 2828 
z
" transform="scale(0.015625)"/>
     <path id="DejaVuSans-7c" d="M 1344 4891 
L 1344 -1509 
L 813 -1509 
L 813 4891 
L 1344 4891 
z
" transform="scale(0.015625)"/>
     <path id="DejaVuSans-4e" d="M 628 4666 
L 1478 4666 
L 3547 763 
L 3547 4666 
L 4159 4666 
L 4159 0 
L 3309 0 
L 1241 3903 
L 1241 0 
L 628 0 
L 628 4666 
z
" transform="scale(0.015625)"/>
     <path id="DejaVuSans-3d" d="M 678 2906 
L 4684 2906 
L 4684 2381 
L 678 2381 
L 678 2906 
z
M 678 1631 
L 4684 1631 
L 4684 1100 
L 678 1100 
L 678 1631 
z
" transform="scale(0.015625)"/>
     <path id="DejaVuSans-2c" d="M 750 794 
L 1409 794 
L 1409 256 
L 897 -744 
L 494 -744 
L 750 256 
L 750 794 
z
" transform="scale(0.015625)"/>
     <path id="DejaVuSans-44" d="M 1259 4147 
L 1259 519 
L 2022 519 
Q 2988 519 3436 956 
Q 3884 1394 3884 2338 
Q 3884 3275 3436 3711 
Q 2988 4147 2022 4147 
L 1259 4147 
z
M 628 4666 
L 1925 4666 
Q 3281 4666 3915 4102 
Q 4550 3538 4550 2338 
Q 4550 1131 3912 565 
Q 3275 0 1925 0 
L 628 0 
L 628 4666 
z
" transform="scale(0.015625)"/>
     <path id="DejaVuSans-67" d="M 2906 1791 
Q 2906 2416 2648 2759 
Q 2391 3103 1925 3103 
Q 1463 3103 1205 2759 
Q 947 2416 947 1791 
Q 947 1169 1205 825 
Q 1463 481 1925 481 
Q 2391 481 2648 825 
Q 2906 1169 2906 1791 
z
M 3481 434 
Q 3481 -459 3084 -895 
Q 2688 -1331 1869 -1331 
Q 1566 -1331 1297 -1286 
Q 1028 -1241 775 -1147 
L 775 -588 
Q 1028 -725 1275 -790 
Q 1522 -856 1778 -856 
Q 2344 -856 2625 -561 
Q 2906 -266 2906 331 
L 2906 616 
Q 2728 306 2450 153 
Q 2172 0 1784 0 
Q 1141 0 747 490 
Q 353 981 353 1791 
Q 353 2603 747 3093 
Q 1141 3584 1784 3584 
Q 2172 3584 2450 3431 
Q 2728 3278 2906 2969 
L 2906 3500 
L 3481 3500 
L 3481 434 
z
" transform="scale(0.015625)"/>
     <path id="DejaVuSans-2d" d="M 313 2009 
L 1997 2009 
L 1997 1497 
L 313 1497 
L 313 2009 
z
" transform="scale(0.015625)"/>
     <path id="DejaVuSans-2e" d="M 684 794 
L 1344 794 
L 1344 0 
L 684 0 
L 684 794 
z
" transform="scale(0.015625)"/>
     <path id="DejaVuSans-39" d="M 703 97 
L 703 672 
Q 941 559 1184 500 
Q 1428 441 1663 441 
Q 2288 441 2617 861 
Q 2947 1281 2994 2138 
Q 2813 1869 2534 1725 
Q 2256 1581 1919 1581 
Q 1219 1581 811 2004 
Q 403 2428 403 3163 
Q 403 3881 828 4315 
Q 1253 4750 1959 4750 
Q 2769 4750 3195 4129 
Q 3622 3509 3622 2328 
Q 3622 1225 3098 567 
Q 2575 -91 1691 -91 
Q 1453 -91 1209 -44 
Q 966 3 703 97 
z
M 1959 2075 
Q 2384 2075 2632 2365 
Q 2881 2656 2881 3163 
Q 2881 3666 2632 3958 
Q 2384 4250 1959 4250 
Q 1534 4250 1286 3958 
Q 1038 3666 1038 3163 
Q 1038 2656 1286 2365 
Q 1534 2075 1959 2075 
z
" transform="scale(0.015625)"/>
     <path id="DejaVuSans-55" d="M 556 4666 
L 1191 4666 
L 1191 1831 
Q 1191 1081 1462 751 
Q 1734 422 2344 422 
Q 2950 422 3222 751 
Q 3494 1081 3494 1831 
L 3494 4666 
L 4128 4666 
L 4128 1753 
Q 4128 841 3676 375 
Q 3225 -91 2344 -91 
Q 1459 -91 1007 375 
Q 556 841 556 1753 
L 556 4666 
z
" transform="scale(0.015625)"/>
    </defs>
    <use xlink:href="#DejaVuSans-50"/>
    <use xlink:href="#DejaVuSans-6f" transform="translate(56.677734 0)"/>
    <use xlink:href="#DejaVuSans-70" transform="translate(117.859375 0)"/>
    <use xlink:href="#DejaVuSans-75" transform="translate(181.335938 0)"/>
    <use xlink:href="#DejaVuSans-6c" transform="translate(244.714844 0)"/>
    <use xlink:href="#DejaVuSans-61" transform="translate(272.498047 0)"/>
    <use xlink:href="#DejaVuSans-74" transform="translate(333.777344 0)"/>
    <use xlink:href="#DejaVuSans-69" transform="translate(372.986328 0)"/>
    <use xlink:href="#DejaVuSans-6f" transform="translate(400.769531 0)"/>
    <use xlink:href="#DejaVuSans-6e" transform="translate(461.951172 0)"/>
    <use xlink:href="#DejaVuSans-3a" transform="translate(525.330078 0)"/>
    <use xlink:href="#DejaVuSans-20" transform="translate(559.021484 0)"/>
    <use xlink:href="#DejaVuSans-41" transform="translate(590.808594 0)"/>
    <use xlink:href="#DejaVuSans-6c" transform="translate(659.216797 0)"/>
    <use xlink:href="#DejaVuSans-6c" transform="translate(687 0)"/>
    <use xlink:href="#DejaVuSans-20" transform="translate(714.783203 0)"/>
    <use xlink:href="#DejaVuSans-75" transform="translate(746.570312 0)"/>
    <use xlink:href="#DejaVuSans-73" transform="translate(809.949219 0)"/>
    <use xlink:href="#DejaVuSans-61" transform="translate(862.048828 0)"/>
    <use xlink:href="#DejaVuSans-62" transform="translate(923.328125 0)"/>
    <use xlink:href="#DejaVuSans-6c" transform="translate(986.804688 0)"/>
    <use xlink:href="#DejaVuSans-65" transform="translate(1014.587891 0)"/>
    <use xlink:href="#DejaVuSans-20" transform="translate(1076.111328 0)"/>
    <use xlink:href="#DejaVuSans-76" transform="translate(1107.898438 0)"/>
    <use xlink:href="#DejaVuSans-37" transform="translate(1167.078125 0)"/>
    <use xlink:href="#DejaVuSans-20" transform="translate(1230.701172 0)"/>
    <use xlink:href="#DejaVuSans-73" transform="translate(1262.488281 0)"/>
    <use xlink:href="#DejaVuSans-6e" transform="translate(1314.587891 0)"/>
    <use xlink:href="#DejaVuSans-61" transform="translate(1377.966797 0)"/>
    <use xlink:href="#DejaVuSans-70" transform="translate(1439.246094 0)"/>
    <use xlink:href="#DejaVuSans-73" transform="translate(1502.722656 0)"/>
    <use xlink:href="#DejaVuSans-68" transform="translate(1554.822266 0)"/>
    <use xlink:href="#DejaVuSans-6f" transform="translate(1618.201172 0)"/>
    <use xlink:href="#DejaVuSans-74" transform="translate(1679.382812 0)"/>
    <use xlink:href="#DejaVuSans-73" transform="translate(1718.591797 0)"/>
    <use xlink:href="#DejaVuSans-20" transform="translate(1770.691406 0)"/>
    <use xlink:href="#DejaVuSans-61" transform="translate(1802.478516 0)"/>
    <use xlink:href="#DejaVuSans-63" transform="translate(1863.757812 0)"/>
    <use xlink:href="#DejaVuSans-72" transform="translate(1918.738281 0)"/>
    <use xlink:href="#DejaVuSans-6f" transform="translate(1957.601562 0)"/>
    <use xlink:href="#DejaVuSans-73" transform="translate(2018.783203 0)"/>
    <use xlink:href="#DejaVuSans-73" transform="translate(2070.882812 0)"/>
    <use xlink:href="#DejaVuSans-20" transform="translate(2122.982422 0)"/>
    <use xlink:href="#DejaVuSans-61" transform="translate(2154.769531 0)"/>
    <use xlink:href="#DejaVuSans-6c" transform="translate(2216.048828 0)"/>
    <use xlink:href="#DejaVuSans-6c" transform="translate(2243.832031 0)"/>
    <use xlink:href="#DejaVuSans-20" transform="translate(2271.615234 0)"/>
    <use xlink:href="#DejaVuSans-73" transform="translate(2303.402344 0)"/>
    <use xlink:href="#DejaVuSans-79" transform="translate(2355.501953 0)"/>
    <use xlink:href="#DejaVuSans-6d" transform="translate(2414.681641 0)"/>
    <use xlink:href="#DejaVuSans-62" transform="translate(2512.09375 0)"/>
    <use xlink:href="#DejaVuSans-6f" transform="translate(2575.570312 0)"/>
    <use xlink:href="#DejaVuSans-6c" transform="translate(2636.751953 0)"/>
    <use xlink:href="#DejaVuSans-73" transform="translate(2664.535156 0)"/>
    <use xlink:href="#DejaVuSans-20" transform="translate(2716.634766 0)"/>
    <use xlink:href="#DejaVuSans-7c" transform="translate(2748.421875 0)"/>
    <use xlink:href="#DejaVuSans-20" transform="translate(2782.113281 0)"/>
    <use xlink:href="#DejaVuSans-4e" transform="translate(2813.900391 0)"/>
    <use xlink:href="#DejaVuSans-3d" transform="translate(2888.705078 0)"/>
    <use xlink:href="#DejaVuSans-31" transform="translate(2972.494141 0)"/>
    <use xlink:href="#DejaVuSans-30" transform="translate(3036.117188 0)"/>
    <use xlink:href="#DejaVuSans-2c" transform="translate(3099.740234 0)"/>
    <use xlink:href="#DejaVuSans-37" transform="translate(3131.527344 0)"/>
    <use xlink:href="#DejaVuSans-31" transform="translate(3195.150391 0)"/>
    <use xlink:href="#DejaVuSans-31" transform="translate(3258.773438 0)"/>
    <use xlink:href="#DejaVuSans-20" transform="translate(3322.396484 0)"/>
    <use xlink:href="#DejaVuSans-7c" transform="translate(3354.183594 0)"/>
    <use xlink:href="#DejaVuSans-20" transform="translate(3387.875 0)"/>
    <use xlink:href="#DejaVuSans-44" transform="translate(3419.662109 0)"/>
    <use xlink:href="#DejaVuSans-61" transform="translate(3496.664062 0)"/>
    <use xlink:href="#DejaVuSans-74" transform="translate(3557.943359 0)"/>
    <use xlink:href="#DejaVuSans-65" transform="translate(3597.152344 0)"/>
    <use xlink:href="#DejaVuSans-20" transform="translate(3658.675781 0)"/>
    <use xlink:href="#DejaVuSans-72" transform="translate(3690.462891 0)"/>
    <use xlink:href="#DejaVuSans-61" transform="translate(3731.576172 0)"/>
    <use xlink:href="#DejaVuSans-6e" transform="translate(3792.855469 0)"/>
    <use xlink:href="#DejaVuSans-67" transform="translate(3856.234375 0)"/>
    <use xlink:href="#DejaVuSans-65" transform="translate(3919.710938 0)"/>
    <use xlink:href="#DejaVuSans-3a" transform="translate(3981.234375 0)"/>
    <use xlink:href="#DejaVuSans-20" transform="translate(4014.925781 0)"/>
    <use xlink:href="#DejaVuSans-32" transform="translate(4046.712891 0)"/>
    <use xlink:href="#DejaVuSans-30" transform="translate(4110.335938 0)"/>
    <use xlink:href="#DejaVuSans-32" transform="translate(4173.958984 0)"/>
    <use xlink:href="#DejaVuSans-35" transform="translate(4237.582031 0)"/>
    <use xlink:href="#DejaVuSans-2d" transform="translate(4301.205078 0)"/>
    <use xlink:href="#DejaVuSans-31" transform="translate(4337.289062 0)"/>
    <use xlink:href="#DejaVuSans-32" transform="translate(4400.912109 0)"/>
    <use xlink:href="#DejaVuSans-2d" transform="translate(4464.535156 0)"/>
    <use xlink:href="#DejaVuSans-31" transform="translate(4500.619141 0)"/>
    <use xlink:href="#DejaVuSans-34" transform="translate(4564.242188 0)"/>
    <use xlink:href="#DejaVuSans-2e" transform="translate(4627.865234 0)"/>
    <use xlink:href="#DejaVuSans-2e" transform="translate(4659.652344 0)"/>
    <use xlink:href="#DejaVuSans-32" transform="translate(4691.439453 0)"/>
    <use xlink:href="#DejaVuSans-30" transform="translate(4755.0625 0)"/>
    <use xlink:href="#DejaVuSans-32" transform="translate(4818.685547 0)"/>
    <use xlink:href="#DejaVuSans-35" transform="translate(4882.308594 0)"/>
    <use xlink:href="#DejaVuSans-2d" transform="translate(4945.931641 0)"/>
    <use xlink:href="#DejaVuSans-31" transform="translate(4982.015625 0)"/>
    <use xlink:href="#DejaVuSans-32" transform="translate(5045.638672 0)"/>
    <use xlink:href="#DejaVuSans-2d" transform="translate(5109.261719 0)"/>
    <use xlink:href="#DejaVuSans-31" transform="translate(5145.345703 0)"/>
    <use xlink:href="#DejaVuSans-39" transform="translate(5208.96875 0)"/>
    <use xlink:href="#DejaVuSans-20" transform="translate(5272.591797 0)"/>
    <use xlink:href="#DejaVuSans-55" transform="translate(5304.378906 0)"/>
    <use xlink:href="#DejaVuSans-54" transform="translate(5377.572266 0)"/>
    <use xlink:href="#DejaVuSans-43" transform="translate(5432.78125 0)"/>
   </g>
  </g>
  <g id="text_21">
   <!-- One sample = one snapshot entry. Tweet counts from twitter_sentiment_windows.last_cycle.posts_total. -->
   <g style="fill: #808080" transform="translate(176.898594 423.36) scale(0.07 -0.07)">
    <defs>
     <path id="DejaVuSans-Oblique-4f" d="M 2919 4238 
Q 2400 4238 2003 3986 
Q 1606 3734 1313 3219 
Q 1125 2891 1026 2522 
Q 928 2153 928 1778 
Q 928 1128 1239 775 
Q 1550 422 2119 422 
Q 2631 422 3032 676 
Q 3434 931 3719 1434 
Q 3909 1772 4009 2142 
Q 4109 2513 4109 2881 
Q 4109 3528 3796 3883 
Q 3484 4238 2919 4238 
z
M 2100 -91 
Q 1241 -91 748 418 
Q 256 928 256 1813 
Q 256 2319 448 2847 
Q 641 3375 978 3788 
Q 1375 4272 1862 4511 
Q 2350 4750 2938 4750 
Q 3794 4750 4287 4245 
Q 4781 3741 4781 2869 
Q 4781 2331 4593 1812 
Q 4406 1294 4056 872 
Q 3656 384 3173 146 
Q 2691 -91 2100 -91 
z
" transform="scale(0.015625)"/>
     <path id="DejaVuSans-Oblique-6e" d="M 3566 2113 
L 3156 0 
L 2578 0 
L 2988 2091 
Q 3016 2238 3031 2350 
Q 3047 2463 3047 2528 
Q 3047 2791 2881 2937 
Q 2716 3084 2419 3084 
Q 1956 3084 1622 2776 
Q 1288 2469 1184 1941 
L 800 0 
L 225 0 
L 903 3500 
L 1478 3500 
L 1363 2950 
Q 1603 3253 1940 3418 
Q 2278 3584 2650 3584 
Q 3113 3584 3367 3334 
Q 3622 3084 3622 2631 
Q 3622 2519 3608 2391 
Q 3594 2263 3566 2113 
z
" transform="scale(0.015625)"/>
     <path id="DejaVuSans-Oblique-65" d="M 3078 2063 
Q 3088 2113 3092 2166 
Q 3097 2219 3097 2272 
Q 3097 2653 2873 2875 
Q 2650 3097 2266 3097 
Q 1838 3097 1509 2826 
Q 1181 2556 1013 2059 
L 3078 2063 
z
M 3578 1613 
L 903 1613 
Q 884 1494 878 1425 
Q 872 1356 872 1306 
Q 872 872 1139 634 
Q 1406 397 1894 397 
Q 2269 397 2603 481 
Q 2938 566 3225 728 
L 3116 159 
Q 2806 34 2476 -28 
Q 2147 -91 1806 -91 
Q 1078 -91 686 257 
Q 294 606 294 1247 
Q 294 1794 489 2264 
Q 684 2734 1063 3103 
Q 1306 3334 1642 3459 
Q 1978 3584 2356 3584 
Q 2950 3584 3301 3228 
Q 3653 2872 3653 2272 
Q 3653 2128 3634 1964 
Q 3616 1800 3578 1613 
z
" transform="scale(0.015625)"/>
     <path id="DejaVuSans-Oblique-20" transform="scale(0.015625)"/>
     <path id="DejaVuSans-Oblique-73" d="M 3200 3397 
L 3091 2853 
Q 2863 2978 2609 3040 
Q 2356 3103 2088 3103 
Q 1634 3103 1373 2948 
Q 1113 2794 1113 2528 
Q 1113 2219 1719 2053 
Q 1766 2041 1788 2034 
L 1972 1978 
Q 2547 1819 2739 1644 
Q 2931 1469 2931 1166 
Q 2931 609 2489 259 
Q 2047 -91 1331 -91 
Q 1053 -91 747 -37 
Q 441 16 72 128 
L 184 722 
Q 500 559 806 475 
Q 1113 391 1394 391 
Q 1816 391 2080 572 
Q 2344 753 2344 1031 
Q 2344 1331 1650 1516 
L 1591 1531 
L 1394 1581 
Q 956 1697 753 1886 
Q 550 2075 550 2369 
Q 550 2928 970 3256 
Q 1391 3584 2113 3584 
Q 2397 3584 2667 3537 
Q 2938 3491 3200 3397 
z
" transform="scale(0.015625)"/>
     <path id="DejaVuSans-Oblique-61" d="M 3438 1997 
L 3047 0 
L 2472 0 
L 2578 531 
Q 2325 219 2001 64 
Q 1678 -91 1281 -91 
Q 834 -91 548 182 
Q 263 456 263 884 
Q 263 1497 752 1853 
Q 1241 2209 2100 2209 
L 2900 2209 
L 2931 2363 
Q 2938 2388 2941 2417 
Q 2944 2447 2944 2509 
Q 2944 2788 2717 2942 
Q 2491 3097 2081 3097 
Q 1800 3097 1504 3025 
Q 1209 2953 897 2809 
L 997 3341 
Q 1322 3463 1633 3523 
Q 1944 3584 2234 3584 
Q 2853 3584 3176 3315 
Q 3500 3047 3500 2534 
Q 3500 2431 3484 2292 
Q 3469 2153 3438 1997 
z
M 2816 1759 
L 2241 1759 
Q 1534 1759 1195 1570 
Q 856 1381 856 984 
Q 856 709 1029 553 
Q 1203 397 1509 397 
Q 1978 397 2328 733 
Q 2678 1069 2791 1631 
L 2816 1759 
z
" transform="scale(0.015625)"/>
     <path id="DejaVuSans-Oblique-6d" d="M 5747 2113 
L 5338 0 
L 4763 0 
L 5166 2094 
Q 5191 2228 5203 2325 
Q 5216 2422 5216 2491 
Q 5216 2772 5059 2928 
Q 4903 3084 4622 3084 
Q 4203 3084 3875 2770 
Q 3547 2456 3450 1953 
L 3066 0 
L 2491 0 
L 2900 2094 
Q 2925 2209 2937 2307 
Q 2950 2406 2950 2484 
Q 2950 2769 2794 2926 
Q 2638 3084 2363 3084 
Q 1938 3084 1609 2770 
Q 1281 2456 1184 1953 
L 800 0 
L 225 0 
L 909 3500 
L 1484 3500 
L 1375 2956 
Q 1609 3263 1923 3423 
Q 2238 3584 2597 3584 
Q 2978 3584 3223 3384 
Q 3469 3184 3519 2828 
Q 3781 3197 4126 3390 
Q 4472 3584 4856 3584 
Q 5306 3584 5551 3325 
Q 5797 3066 5797 2591 
Q 5797 2488 5784 2364 
Q 5772 2241 5747 2113 
z
" transform="scale(0.015625)"/>
     <path id="DejaVuSans-Oblique-70" d="M 3175 2156 
Q 3175 2616 2975 2859 
Q 2775 3103 2400 3103 
Q 2144 3103 1911 2972 
Q 1678 2841 1497 2591 
Q 1319 2344 1212 1994 
Q 1106 1644 1106 1300 
Q 1106 863 1306 627 
Q 1506 391 1875 391 
Q 2147 391 2380 519 
Q 2613 647 2778 891 
Q 2956 1147 3065 1494 
Q 3175 1841 3175 2156 
z
M 1394 2969 
Q 1625 3272 1939 3428 
Q 2253 3584 2638 3584 
Q 3175 3584 3472 3232 
Q 3769 2881 3769 2247 
Q 3769 1728 3584 1258 
Q 3400 788 3053 416 
Q 2822 169 2531 39 
Q 2241 -91 1919 -91 
Q 1547 -91 1294 64 
Q 1041 219 916 525 
L 556 -1331 
L -19 -1331 
L 922 3500 
L 1497 3500 
L 1394 2969 
z
" transform="scale(0.015625)"/>
     <path id="DejaVuSans-Oblique-6c" d="M 1172 4863 
L 1747 4863 
L 800 0 
L 225 0 
L 1172 4863 
z
" transform="scale(0.015625)"/>
     <path id="DejaVuSans-Oblique-3d" d="M 678 2906 
L 4684 2906 
L 4684 2381 
L 678 2381 
L 678 2906 
z
M 678 1631 
L 4684 1631 
L 4684 1100 
L 678 1100 
L 678 1631 
z
" transform="scale(0.015625)"/>
     <path id="DejaVuSans-Oblique-6f" d="M 1625 -91 
Q 1009 -91 651 289 
Q 294 669 294 1325 
Q 294 1706 417 2101 
Q 541 2497 738 2766 
Q 1047 3184 1428 3384 
Q 1809 3584 2291 3584 
Q 2888 3584 3255 3212 
Q 3622 2841 3622 2241 
Q 3622 1825 3500 1412 
Q 3378 1000 3181 728 
Q 2875 309 2494 109 
Q 2113 -91 1625 -91 
z
M 891 1344 
Q 891 869 1089 633 
Q 1288 397 1691 397 
Q 2269 397 2648 901 
Q 3028 1406 3028 2181 
Q 3028 2634 2825 2865 
Q 2622 3097 2228 3097 
Q 1903 3097 1650 2945 
Q 1397 2794 1197 2484 
Q 1050 2253 970 1956 
Q 891 1659 891 1344 
z
" transform="scale(0.015625)"/>
     <path id="DejaVuSans-Oblique-68" d="M 3566 2113 
L 3156 0 
L 2578 0 
L 2988 2091 
Q 3016 2238 3031 2350 
Q 3047 2463 3047 2528 
Q 3047 2791 2881 2937 
Q 2716 3084 2419 3084 
Q 1956 3084 1617 2771 
Q 1278 2459 1178 1941 
L 800 0 
L 225 0 
L 1172 4863 
L 1747 4863 
L 1375 2950 
Q 1594 3244 1934 3414 
Q 2275 3584 2650 3584 
Q 3113 3584 3367 3334 
Q 3622 3084 3622 2631 
Q 3622 2519 3608 2391 
Q 3594 2263 3566 2113 
z
" transform="scale(0.015625)"/>
     <path id="DejaVuSans-Oblique-74" d="M 2706 3500 
L 2619 3053 
L 1472 3053 
L 1100 1153 
Q 1081 1047 1072 975 
Q 1063 903 1063 863 
Q 1063 663 1183 572 
Q 1303 481 1569 481 
L 2150 481 
L 2053 0 
L 1503 0 
Q 991 0 739 200 
Q 488 400 488 806 
Q 488 878 497 964 
Q 506 1050 525 1153 
L 897 3053 
L 409 3053 
L 500 3500 
L 978 3500 
L 1172 4494 
L 1747 4494 
L 1556 3500 
L 2706 3500 
z
" transform="scale(0.015625)"/>
     <path id="DejaVuSans-Oblique-72" d="M 2853 2969 
Q 2766 3016 2653 3041 
Q 2541 3066 2413 3066 
Q 1953 3066 1609 2717 
Q 1266 2369 1153 1784 
L 800 0 
L 225 0 
L 909 3500 
L 1484 3500 
L 1375 2956 
Q 1603 3259 1920 3421 
Q 2238 3584 2597 3584 
Q 2691 3584 2781 3573 
Q 2872 3563 2963 3538 
L 2853 2969 
z
" transform="scale(0.015625)"/>
     <path id="DejaVuSans-Oblique-79" d="M 1588 -325 
Q 1188 -997 936 -1164 
Q 684 -1331 294 -1331 
L -159 -1331 
L -63 -850 
L 269 -850 
Q 509 -850 678 -719 
Q 847 -588 1056 -206 
L 1234 128 
L 459 3500 
L 1069 3500 
L 1650 819 
L 3256 3500 
L 3859 3500 
L 1588 -325 
z
" transform="scale(0.015625)"/>
     <path id="DejaVuSans-Oblique-2e" d="M 525 794 
L 1184 794 
L 1031 0 
L 372 0 
L 525 794 
z
" transform="scale(0.015625)"/>
     <path id="DejaVuSans-Oblique-54" d="M 378 4666 
L 4325 4666 
L 4225 4134 
L 2559 4134 
L 1759 0 
L 1125 0 
L 1925 4134 
L 275 4134 
L 378 4666 
z
" transform="scale(0.015625)"/>
     <path id="DejaVuSans-Oblique-77" d="M 544 3500 
L 1113 3500 
L 1259 684 
L 2566 3500 
L 3231 3500 
L 3425 684 
L 4666 3500 
L 5241 3500 
L 3641 0 
L 2969 0 
L 2797 2900 
L 1459 0 
L 781 0 
L 544 3500 
z
" transform="scale(0.015625)"/>
     <path id="DejaVuSans-Oblique-63" d="M 3431 3366 
L 3316 2797 
Q 3109 2947 2876 3022 
Q 2644 3097 2394 3097 
Q 2119 3097 1870 3000 
Q 1622 2903 1453 2725 
Q 1184 2453 1037 2087 
Q 891 1722 891 1331 
Q 891 859 1127 628 
Q 1363 397 1844 397 
Q 2081 397 2348 469 
Q 2616 541 2906 684 
L 2797 116 
Q 2547 13 2283 -39 
Q 2019 -91 1741 -91 
Q 1044 -91 669 257 
Q 294 606 294 1253 
Q 294 1797 489 2255 
Q 684 2713 1069 3078 
Q 1331 3328 1684 3456 
Q 2038 3584 2456 3584 
Q 2700 3584 2940 3529 
Q 3181 3475 3431 3366 
z
" transform="scale(0.015625)"/>
     <path id="DejaVuSans-Oblique-75" d="M 428 1388 
L 838 3500 
L 1416 3500 
L 1006 1409 
Q 975 1256 961 1147 
Q 947 1038 947 966 
Q 947 700 1109 554 
Q 1272 409 1569 409 
Q 2031 409 2368 721 
Q 2706 1034 2809 1563 
L 3194 3500 
L 3769 3500 
L 3091 0 
L 2516 0 
L 2631 550 
Q 2388 244 2052 76 
Q 1716 -91 1338 -91 
Q 878 -91 622 161 
Q 366 413 366 863 
Q 366 956 381 1097 
Q 397 1238 428 1388 
z
" transform="scale(0.015625)"/>
     <path id="DejaVuSans-Oblique-66" d="M 3059 4863 
L 2969 4384 
L 2419 4384 
Q 2106 4384 1964 4261 
Q 1822 4138 1753 3809 
L 1691 3500 
L 2638 3500 
L 2553 3053 
L 1606 3053 
L 1013 0 
L 434 0 
L 1031 3053 
L 481 3053 
L 563 3500 
L 1113 3500 
L 1159 3744 
Q 1278 4363 1576 4613 
Q 1875 4863 2516 4863 
L 3059 4863 
z
" transform="scale(0.015625)"/>
     <path id="DejaVuSans-Oblique-69" d="M 1172 4863 
L 1747 4863 
L 1606 4134 
L 1031 4134 
L 1172 4863 
z
M 909 3500 
L 1484 3500 
L 800 0 
L 225 0 
L 909 3500 
z
" transform="scale(0.015625)"/>
     <path id="DejaVuSans-Oblique-5f" d="M 3263 -1063 
L 3263 -1509 
L -63 -1509 
L -63 -1063 
L 3263 -1063 
z
" transform="scale(0.015625)"/>
     <path id="DejaVuSans-Oblique-64" d="M 2675 525 
Q 2444 222 2128 65 
Q 1813 -91 1428 -91 
Q 903 -91 598 267 
Q 294 625 294 1247 
Q 294 1766 478 2236 
Q 663 2706 1013 3078 
Q 1244 3325 1534 3454 
Q 1825 3584 2144 3584 
Q 2481 3584 2739 3421 
Q 2997 3259 3138 2956 
L 3513 4863 
L 4091 4863 
L 3144 0 
L 2566 0 
L 2675 525 
z
M 891 1350 
Q 891 897 1095 644 
Q 1300 391 1663 391 
Q 1931 391 2161 520 
Q 2391 650 2566 903 
Q 2750 1166 2856 1509 
Q 2963 1853 2963 2188 
Q 2963 2622 2758 2865 
Q 2553 3109 2194 3109 
Q 1922 3109 1687 2981 
Q 1453 2853 1288 2613 
Q 1106 2353 998 2009 
Q 891 1666 891 1350 
z
" transform="scale(0.015625)"/>
    </defs>
    <use xlink:href="#DejaVuSans-Oblique-4f"/>
    <use xlink:href="#DejaVuSans-Oblique-6e" transform="translate(78.710938 0)"/>
    <use xlink:href="#DejaVuSans-Oblique-65" transform="translate(142.089844 0)"/>
    <use xlink:href="#DejaVuSans-Oblique-20" transform="translate(203.613281 0)"/>
    <use xlink:href="#DejaVuSans-Oblique-73" transform="translate(235.400391 0)"/>
    <use xlink:href="#DejaVuSans-Oblique-61" transform="translate(287.5 0)"/>
    <use xlink:href="#DejaVuSans-Oblique-6d" transform="translate(348.779297 0)"/>
    <use xlink:href="#DejaVuSans-Oblique-70" transform="translate(446.191406 0)"/>
    <use xlink:href="#DejaVuSans-Oblique-6c" transform="translate(509.667969 0)"/>
    <use xlink:href="#DejaVuSans-Oblique-65" transform="translate(537.451172 0)"/>
    <use xlink:href="#DejaVuSans-Oblique-20" transform="translate(598.974609 0)"/>
    <use xlink:href="#DejaVuSans-Oblique-3d" transform="translate(630.761719 0)"/>
    <use xlink:href="#DejaVuSans-Oblique-20" transform="translate(714.550781 0)"/>
    <use xlink:href="#DejaVuSans-Oblique-6f" transform="translate(746.337891 0)"/>
    <use xlink:href="#DejaVuSans-Oblique-6e" transform="translate(807.519531 0)"/>
    <use xlink:href="#DejaVuSans-Oblique-65" transform="translate(870.898438 0)"/>
    <use xlink:href="#DejaVuSans-Oblique-20" transform="translate(932.421875 0)"/>
    <use xlink:href="#DejaVuSans-Oblique-73" transform="translate(964.208984 0)"/>
    <use xlink:href="#DejaVuSans-Oblique-6e" transform="translate(1016.308594 0)"/>
    <use xlink:href="#DejaVuSans-Oblique-61" transform="translate(1079.6875 0)"/>
    <use xlink:href="#DejaVuSans-Oblique-70" transform="translate(1140.966797 0)"/>
    <use xlink:href="#DejaVuSans-Oblique-73" transform="translate(1204.443359 0)"/>
    <use xlink:href="#DejaVuSans-Oblique-68" transform="translate(1256.542969 0)"/>
    <use xlink:href="#DejaVuSans-Oblique-6f" transform="translate(1319.921875 0)"/>
    <use xlink:href="#DejaVuSans-Oblique-74" transform="translate(1381.103516 0)"/>
    <use xlink:href="#DejaVuSans-Oblique-20" transform="translate(1420.3125 0)"/>
    <use xlink:href="#DejaVuSans-Oblique-65" transform="translate(1452.099609 0)"/>
    <use xlink:href="#DejaVuSans-Oblique-6e" transform="translate(1513.623047 0)"/>
    <use xlink:href="#DejaVuSans-Oblique-74" transform="translate(1577.001953 0)"/>
    <use xlink:href="#DejaVuSans-Oblique-72" transform="translate(1616.210938 0)"/>
    <use xlink:href="#DejaVuSans-Oblique-79" transform="translate(1657.324219 0)"/>
    <use xlink:href="#DejaVuSans-Oblique-2e" transform="translate(1708.753906 0)"/>
    <use xlink:href="#DejaVuSans-Oblique-20" transform="translate(1740.541016 0)"/>
    <use xlink:href="#DejaVuSans-Oblique-54" transform="translate(1772.328125 0)"/>
    <use xlink:href="#DejaVuSans-Oblique-77" transform="translate(1825.287109 0)"/>
    <use xlink:href="#DejaVuSans-Oblique-65" transform="translate(1907.074219 0)"/>
    <use xlink:href="#DejaVuSans-Oblique-65" transform="translate(1968.597656 0)"/>
    <use xlink:href="#DejaVuSans-Oblique-74" transform="translate(2030.121094 0)"/>
    <use xlink:href="#DejaVuSans-Oblique-20" transform="translate(2069.330078 0)"/>
    <use xlink:href="#DejaVuSans-Oblique-63" transform="translate(2101.117188 0)"/>
    <use xlink:href="#DejaVuSans-Oblique-6f" transform="translate(2156.097656 0)"/>
    <use xlink:href="#DejaVuSans-Oblique-75" transform="translate(2217.279297 0)"/>
    <use xlink:href="#DejaVuSans-Oblique-6e" transform="translate(2280.658203 0)"/>
    <use xlink:href="#DejaVuSans-Oblique-74" transform="translate(2344.037109 0)"/>
    <use xlink:href="#DejaVuSans-Oblique-73" transform="translate(2383.246094 0)"/>
    <use xlink:href="#DejaVuSans-Oblique-20" transform="translate(2435.345703 0)"/>
    <use xlink:href="#DejaVuSans-Oblique-66" transform="translate(2467.132812 0)"/>
    <use xlink:href="#DejaVuSans-Oblique-72" transform="translate(2502.337891 0)"/>
    <use xlink:href="#DejaVuSans-Oblique-6f" transform="translate(2543.451172 0)"/>
    <use xlink:href="#DejaVuSans-Oblique-6d" transform="translate(2604.632812 0)"/>
    <use xlink:href="#DejaVuSans-Oblique-20" transform="translate(2702.044922 0)"/>
    <use xlink:href="#DejaVuSans-Oblique-74" transform="translate(2733.832031 0)"/>
    <use xlink:href="#DejaVuSans-Oblique-77" transform="translate(2773.041016 0)"/>
    <use xlink:href="#DejaVuSans-Oblique-69" transform="translate(2854.828125 0)"/>
    <use xlink:href="#DejaVuSans-Oblique-74" transform="translate(2882.611328 0)"/>
    <use xlink:href="#DejaVuSans-Oblique-74" transform="translate(2921.820312 0)"/>
    <use xlink:href="#DejaVuSans-Oblique-65" transform="translate(2961.029297 0)"/>
    <use xlink:href="#DejaVuSans-Oblique-72" transform="translate(3022.552734 0)"/>
    <use xlink:href="#DejaVuSans-Oblique-5f" transform="translate(3063.666016 0)"/>
    <use xlink:href="#DejaVuSans-Oblique-73" transform="translate(3113.666016 0)"/>
    <use xlink:href="#DejaVuSans-Oblique-65" transform="translate(3165.765625 0)"/>
    <use xlink:href="#DejaVuSans-Oblique-6e" transform="translate(3227.289062 0)"/>
    <use xlink:href="#DejaVuSans-Oblique-74" transform="translate(3290.667969 0)"/>
    <use xlink:href="#DejaVuSans-Oblique-69" transform="translate(3329.876953 0)"/>
    <use xlink:href="#DejaVuSans-Oblique-6d" transform="translate(3357.660156 0)"/>
    <use xlink:href="#DejaVuSans-Oblique-65" transform="translate(3455.072266 0)"/>
    <use xlink:href="#DejaVuSans-Oblique-6e" transform="translate(3516.595703 0)"/>
    <use xlink:href="#DejaVuSans-Oblique-74" transform="translate(3579.974609 0)"/>
    <use xlink:href="#DejaVuSans-Oblique-5f" transform="translate(3619.183594 0)"/>
    <use xlink:href="#DejaVuSans-Oblique-77" transform="translate(3669.183594 0)"/>
    <use xlink:href="#DejaVuSans-Oblique-69" transform="translate(3750.970703 0)"/>
    <use xlink:href="#DejaVuSans-Oblique-6e" transform="translate(3778.753906 0)"/>
    <use xlink:href="#DejaVuSans-Oblique-64" transform="translate(3842.132812 0)"/>
    <use xlink:href="#DejaVuSans-Oblique-6f" transform="translate(3905.609375 0)"/>
    <use xlink:href="#DejaVuSans-Oblique-77" transform="translate(3966.791016 0)"/>
    <use xlink:href="#DejaVuSans-Oblique-73" transform="translate(4048.578125 0)"/>
    <use xlink:href="#DejaVuSans-Oblique-2e" transform="translate(4100.677734 0)"/>
    <use xlink:href="#DejaVuSans-Oblique-6c" transform="translate(4132.464844 0)"/>
    <use xlink:href="#DejaVuSans-Oblique-61" transform="translate(4160.248047 0)"/>
    <use xlink:href="#DejaVuSans-Oblique-73" transform="translate(4221.527344 0)"/>
    <use xlink:href="#DejaVuSans-Oblique-74" transform="translate(4273.626953 0)"/>
    <use xlink:href="#DejaVuSans-Oblique-5f" transform="translate(4312.835938 0)"/>
    <use xlink:href="#DejaVuSans-Oblique-63" transform="translate(4362.835938 0)"/>
    <use xlink:href="#DejaVuSans-Oblique-79" transform="translate(4417.816406 0)"/>
    <use xlink:href="#DejaVuSans-Oblique-63" transform="translate(4476.996094 0)"/>
    <use xlink:href="#DejaVuSans-Oblique-6c" transform="translate(4531.976562 0)"/>
    <use xlink:href="#DejaVuSans-Oblique-65" transform="translate(4559.759766 0)"/>
    <use xlink:href="#DejaVuSans-Oblique-2e" transform="translate(4621.283203 0)"/>
    <use xlink:href="#DejaVuSans-Oblique-70" transform="translate(4653.070312 0)"/>
    <use xlink:href="#DejaVuSans-Oblique-6f" transform="translate(4716.546875 0)"/>
    <use xlink:href="#DejaVuSans-Oblique-73" transform="translate(4777.728516 0)"/>
    <use xlink:href="#DejaVuSans-Oblique-74" transform="translate(4829.828125 0)"/>
    <use xlink:href="#DejaVuSans-Oblique-73" transform="translate(4869.037109 0)"/>
    <use xlink:href="#DejaVuSans-Oblique-5f" transform="translate(4921.136719 0)"/>
    <use xlink:href="#DejaVuSans-Oblique-74" transform="translate(4971.136719 0)"/>
    <use xlink:href="#DejaVuSans-Oblique-6f" transform="translate(5010.345703 0)"/>
    <use xlink:href="#DejaVuSans-Oblique-74" transform="translate(5071.527344 0)"/>
    <use xlink:href="#DejaVuSans-Oblique-61" transform="translate(5110.736328 0)"/>
    <use xlink:href="#DejaVuSans-Oblique-6c" transform="translate(5172.015625 0)"/>
    <use xlink:href="#DejaVuSans-Oblique-2e" transform="translate(5199.798828 0)"/>
   </g>
  </g>
 </g>
 <defs>
  <clipPath id="paca5a0e526">
   <rect x="57.89" y="66.8" width="651.31" height="304.37375"/>
  </clipPath>
 </defs>
</svg>
