<?xml version="1.0" encoding="UTF-8"?>
<!DOCTYPE svg PUBLIC "-//W3C//DTD SVG 1.1//EN" "http://www.w3.org/Graphics/SVG/1.1/DTD/svg11.dtd">
<!-- Creator: CorelDRAW -->
<svg xmlns="http://www.w3.org/2000/svg" xml:space="preserve" width="260mm" height="60mm" version="1.1" shape-rendering="geometricPrecision" text-rendering="geometricPrecision" image-rendering="optimizeQuality" fill-rule="evenodd" clip-rule="evenodd"
viewBox="0 0 26000 6000"
 xmlns:xlink="http://www.w3.org/1999/xlink"
 xmlns:xodm="http://www.corel.com/coreldraw/odm/2003">
 <g id="Layer_x0020_1">
  <metadata id="CorelCorpID_0Corel-Layer"/>
    <path fill="#f0f0f0" fill-rule="nonzero" d="M1020.44 4031.3l0 -2051.25 760.31 0 0 2051.25 -760.31 0zm1096.91 0l0 -1180.06c0,-176.88 44.87,-334.62 134.62,-473.2 89.75,-138.61 215.17,-247.51 376.22,-326.69 161.01,-79.21 348.44,-118.81 562.28,-118.81 213.83,0 398.61,39.6 554.41,118.81 155.74,79.18 275.19,188.08 358.35,326.69 83.17,138.58 124.73,296.32 124.73,473.2l0 1180.06 -760.3 0 0 -1132.54c0,-50.15 -11.88,-97.02 -35.64,-140.59 -23.75,-43.54 -57.41,-79.18 -100.98,-106.91 -43.55,-27.72 -95.7,-41.58 -156.41,-41.58 -60.73,0 -114.17,13.86 -160.37,41.58 -46.19,27.73 -81.18,63.37 -104.95,106.91 -23.76,43.57 -35.63,90.44 -35.63,140.59l0 1132.54 -756.33 0zm2447.21 0l0 -538.55 958.3 0c21.11,0 38.26,-4.63 51.49,-13.87 13.17,-9.23 23.74,-21.11 31.67,-35.62 7.91,-14.54 11.88,-29.71 11.88,-45.57 0,-15.82 -3.97,-31.02 -11.88,-45.54 -7.93,-14.51 -18.5,-25.72 -31.67,-33.65 -13.23,-7.91 -30.38,-11.87 -51.49,-11.87l-308.88 0c-134.64,0 -257.4,-23.1 -368.27,-69.3 -110.87,-46.2 -198.66,-118.8 -263.33,-217.79 -64.67,-99.01 -97.02,-226.38 -97.02,-382.13 0,-121.44 29.69,-231.65 89.08,-330.65 59.41,-99.01 140.58,-178.2 243.55,-237.6 102.95,-59.41 216.48,-89.11 340.55,-89.11l1041.45 0 0 538.54 -863.24 0c-26.41,0 -48.18,9.24 -65.35,27.72 -17.14,18.49 -25.75,39.61 -25.75,63.37 0,23.77 8.61,44.88 25.75,63.35 17.17,18.49 38.94,27.72 65.35,27.72l285.1 0c153.12,0 285.77,23.12 397.97,69.3 112.21,46.2 198.67,118.15 259.37,215.82 60.73,97.68 91.09,224.39 91.09,380.15 0,121.43 -31.03,232.32 -93.07,332.65 -62.03,100.3 -144.53,180.82 -247.47,241.56 -102.99,60.71 -219.14,91.07 -348.48,91.07l-1116.7 0zm2839.27 0c-198.01,0 -354.42,-56.76 -469.26,-170.29 -114.84,-113.51 -172.25,-267.96 -172.25,-463.32l0 -839.49 -308.89 0 0 -578.15 308.89 0 0 -475.19 760.3 0 0 475.19 542.52 0 0 578.15 -542.52 0 0 768.23c0,26.39 9.22,48.17 27.71,65.34 18.48,17.15 40.93,25.74 67.32,25.74l447.49 0 0 613.79 -661.31 0zm954.33 0l0 -1413.7c0,-195.35 56.76,-349.79 170.27,-463.32 113.53,-113.51 271.92,-170.28 475.18,-170.28l657.35 0 0 574.2 -392.04 0c-44.85,0 -81.17,13.86 -108.89,41.57 -27.71,27.73 -41.57,64.01 -41.57,108.9l0 1322.63 -760.3 0zm2601.65 51.47c-213.83,0 -401.26,-40.26 -562.3,-120.78 -161.04,-80.52 -286.45,-190.09 -376.19,-328.68 -89.77,-138.59 -134.65,-296.31 -134.65,-473.21l0 -1180.05 756.34 0 0 1132.55c0,47.5 11.9,93.7 35.63,138.6 23.77,44.86 58.75,81.17 104.95,108.88 46.2,27.73 99.67,41.58 160.38,41.58 60.71,0 112.86,-13.85 156.42,-41.58 43.57,-27.71 77.21,-64.02 100.98,-108.88 23.75,-44.9 35.65,-91.1 35.65,-138.6l0 -1132.55 760.28 0 0 1180.05c0,176.9 -41.57,334.62 -124.74,473.21 -83.16,138.59 -202.61,248.16 -358.35,328.68 -155.78,80.52 -340.56,120.78 -554.4,120.78zm1374.08 -51.47l0 -1195.92c0,-184.78 40.92,-344.5 122.77,-479.14 81.83,-134.64 196,-238.91 342.52,-312.84 146.53,-73.9 318.79,-110.86 516.78,-110.86 102.95,0 197.99,9.9 285.11,29.69 87.11,19.81 164.99,46.2 233.64,79.2 68.63,33.01 126.7,70.64 174.23,112.85l11.88 0c50.16,-42.21 108.9,-79.84 176.24,-112.85 67.3,-33 144.52,-59.39 231.62,-79.2 87.12,-19.79 182.17,-29.69 285.12,-29.69 200.64,0 374.87,36.96 522.71,110.86 147.83,73.93 262.68,178.2 344.52,312.84 81.83,134.64 122.75,294.36 122.75,479.14l0 1195.92 -764.26 0 0 -1144.44c0,-50.14 -10.57,-95.67 -31.68,-136.59 -21.11,-40.94 -51.49,-74.59 -91.09,-101.01 -39.59,-26.38 -88.41,-39.58 -146.51,-39.58 -58.07,0 -107.57,13.2 -148.49,39.58 -40.93,26.42 -71.93,60.07 -93.07,101.01 -21.1,40.92 -31.67,86.45 -31.67,136.59l0 1144.44 -756.34 0 0 -1144.44c0,-50.14 -11.22,-95.67 -33.66,-136.59 -22.45,-40.94 -54.78,-74.59 -97.01,-101.01 -42.27,-26.38 -92.41,-39.58 -150.47,-39.58 -55.45,0 -103.64,13.2 -144.55,39.58 -40.92,26.42 -71.95,60.07 -93.05,101.01 -21.15,40.92 -31.68,86.45 -31.68,136.59l0 1144.44 -756.36 0zm4854.85 0c-229.66,0 -434.27,-39.62 -613.78,-118.8 -179.52,-79.21 -321.41,-194.7 -425.69,-346.5 -104.28,-151.79 -156.42,-337.26 -156.42,-556.35 0,-240.26 51.49,-439.56 154.44,-597.98 102.98,-158.39 236.94,-277.84 401.93,-358.35 164.99,-80.51 338.59,-120.78 520.73,-120.78 187.44,0 355.73,38.95 504.89,116.81 149.14,77.88 267.95,189.42 356.39,334.61 88.43,145.19 132.64,319.45 132.64,522.73 0,50.13 -2.61,107.57 -7.9,172.24 -5.28,64.69 -13.2,119.46 -23.76,164.35l-1259.26 0c10.56,44.87 30.37,82.48 59.41,112.85 29.05,30.36 68.63,52.13 118.79,65.34 50.16,13.19 106.92,19.79 170.28,19.79l732.58 0 0 590.04 -665.27 0zm-451.42 -1207.79l625.67 0c0,-31.66 -3.96,-62.03 -11.9,-91.06 -7.89,-29.04 -20.44,-56.11 -37.62,-81.19 -17.15,-25.09 -37.6,-47.53 -61.36,-67.32 -23.76,-19.79 -52.14,-34.98 -85.14,-45.52 -33.02,-10.59 -69.32,-15.87 -108.9,-15.87 -50.17,0 -94.38,7.93 -132.67,23.76 -38.26,15.86 -70.62,36.97 -97.01,63.37 -26.4,26.41 -46.85,58.08 -61.37,95.04 -14.52,36.97 -24.42,76.57 -29.7,118.79zm2455.14 1207.79c-198.01,0 -354.42,-56.76 -469.24,-170.29 -114.84,-113.51 -172.27,-267.96 -172.27,-463.32l0 -839.49 -308.87 0 0 -578.15 308.87 0 0 -475.19 760.31 0 0 475.19 542.5 0 0 578.15 -542.5 0 0 768.23c0,26.39 9.24,48.17 27.71,65.34 18.48,17.15 40.92,25.74 67.31,25.74l447.48 0 0 613.79 -661.3 0zm954.35 0l0 -1413.7c0,-195.35 56.74,-349.79 170.25,-463.32 113.54,-113.51 271.92,-170.28 475.2,-170.28l657.35 0 0 574.2 -392.03 0c-44.88,0 -81.19,13.86 -108.91,41.57 -27.71,27.73 -41.55,64.01 -41.55,108.9l0 1322.63 -760.31 0zm1528.52 0l0 -2051.25 760.28 0 0 2051.25 -760.28 0zm1793.82 987.18l0 -996.96c-63.53,-20.36 -124.92,-46.14 -184.14,-77.35 -170.27,-89.76 -306.22,-215.82 -407.85,-378.17 -101.65,-162.35 -152.46,-349.14 -152.46,-560.32 0,-211.21 50.81,-397.31 152.46,-558.35 101.63,-161.04 238.23,-287.1 409.83,-378.17 171.62,-91.08 360.37,-136.62 566.29,-136.62 205.91,0 393.33,45.54 562.31,136.62 168.94,91.07 303.58,217.13 403.89,378.17 100.34,161.04 150.48,347.14 150.48,558.35 0,211.18 -50.14,397.97 -150.48,560.32 -100.31,162.35 -235.6,288.41 -405.89,378.17 -59.22,31.21 -120.6,57 -184.12,77.35l0 996.96 -760.32 0zm380.16 -1620.79c71.27,0 134.65,-17.16 190.08,-51.46 55.42,-34.32 98.32,-81.19 128.69,-140.58 30.36,-59.41 45.53,-127.39 45.53,-203.94 0,-76.56 -15.17,-143.87 -45.53,-201.94 -30.37,-58.08 -72.59,-104.28 -126.72,-138.61 -54.13,-34.32 -116.81,-51.48 -188.08,-51.48 -73.93,0 -138.61,16.49 -194.04,49.51 -55.45,32.99 -98.99,79.19 -130.67,138.58 -31.7,59.42 -47.53,127.38 -47.53,203.94 0,76.55 15.18,144.53 45.52,203.94 30.37,59.39 73.26,106.26 128.71,140.58 55.44,34.3 120.13,51.46 194.04,51.46z"/>
  <rect fill="#18A0D1" x="21673.84" y="992.86" width="761.48" height="761.48" rx="49.34" ry="49.34"/>
  <rect fill="#18A0D1" x="1019.86" y="992.86" width="761.48" height="761.48" rx="49.34" ry="49.34"/>
 </g>
</svg>
